<svg width="100" height="100" preserveAspectRatio="xMidYMid meet"  id="Layer_2" data-name="Layer 2" xmlns="http://www.w3.org/2000/svg" viewBox="0 0 100 99.989"><title>Icon_Bank-house_100x100</title><path d="M82.632,132.483H65.121a1.418,1.418,0,0,1-1.418-1.418V85.881a1.418,1.418,0,0,1,1.418-1.418H82.632a1.418,1.418,0,0,1,1.418,1.418v45.184A1.418,1.418,0,0,1,82.632,132.483Zm-16.092-2.837H81.213V87.3H66.539v42.348Z" transform="translate(-50 -50.005)" style="fill:#fff"/><path d="M100.143,132.483H82.632a1.418,1.418,0,0,1-1.418-1.418V85.881a1.418,1.418,0,0,1,1.418-1.418h17.511a1.418,1.418,0,0,1,1.418,1.418v45.184A1.418,1.418,0,0,1,100.143,132.483ZM84.05,129.647H98.724V87.3H84.05v42.348Z" transform="translate(-50 -50.005)" style="fill:#fff"/><path d="M117.654,132.483H100.143a1.418,1.418,0,0,1-1.418-1.418V85.881a1.418,1.418,0,0,1,1.418-1.418h17.511a1.418,1.418,0,0,1,1.418,1.418v45.184A1.418,1.418,0,0,1,117.654,132.483Zm-16.092-2.837h14.674V87.3H101.561v42.348Z" transform="translate(-50 -50.005)" style="fill:#fff"/><path d="M135.164,132.483H117.654a1.418,1.418,0,0,1-1.418-1.418V85.881a1.418,1.418,0,0,1,1.418-1.418h17.511a1.418,1.418,0,0,1,1.418,1.418v45.184A1.418,1.418,0,0,1,135.164,132.483Zm-16.092-2.837h14.674V87.3H119.072v42.348Z" transform="translate(-50 -50.005)" style="fill:#fff"/><path d="M148.581,149.994H51.419A1.418,1.418,0,0,1,50,148.576V131.065a1.418,1.418,0,0,1,1.418-1.418h97.163A1.418,1.418,0,0,1,150,131.065v17.511A1.418,1.418,0,0,1,148.581,149.994Zm-95.745-2.837h94.326V132.483H52.837v14.674Z" transform="translate(-50 -50.005)" style="fill:#fff"/><path d="M148.581,87.3H51.419a1.418,1.418,0,0,1-.819-2.576L99.324,50.266a1.418,1.418,0,0,1,1.641,0L149.4,84.725A1.418,1.418,0,0,1,148.581,87.3Zm-92.7-2.837h88.26l-44-31.3Z" transform="translate(-50 -50.005)" style="fill:#fff"/></svg>