<svg width="100" height="100" preserveAspectRatio="xMidYMid meet"  id="Layer_2" data-name="Layer 2" xmlns="http://www.w3.org/2000/svg" viewBox="0 0 100 99.993"><title>Icon_Free_100x100</title><path d="M149.769,112.2L142.034,100l7.736-12.2a1.493,1.493,0,0,0-.57-2.12l-12.8-6.7L137,64.554a1.5,1.5,0,0,0-.436-1.118A1.454,1.454,0,0,0,135.5,63l-14.482.6-6.7-12.8a1.489,1.489,0,0,0-.935-0.749,1.518,1.518,0,0,0-1.186.183L100,57.973,87.8,50.235a1.507,1.507,0,0,0-1.184-.183,1.489,1.489,0,0,0-.935.748l-6.7,12.8L64.551,63h0A1.492,1.492,0,0,0,63,64.553l0.6,14.434-12.8,6.7a1.49,1.49,0,0,0-.568,2.12L57.967,100l-7.736,12.2a1.492,1.492,0,0,0,.57,2.121l12.8,6.694L63,135.445a1.5,1.5,0,0,0,.436,1.118A1.445,1.445,0,0,0,64.5,137l14.488-.6,6.7,12.8a1.491,1.491,0,0,0,2.118.568l12.2-7.739,12.2,7.738a1.49,1.49,0,0,0,2.119-.565l6.7-12.8,14.433,0.6h0A1.493,1.493,0,0,0,137,135.445l-0.6-14.433,12.8-6.7A1.493,1.493,0,0,0,149.769,112.2ZM134.181,118.8a1.5,1.5,0,0,0-.8,1.383l0.573,13.76-13.758-.572h0a1.464,1.464,0,0,0-1.383.8l-6.385,12.2L100.8,139a1.508,1.508,0,0,0-1.595,0l-11.63,7.375-6.384-12.2a1.488,1.488,0,0,0-1.322-.8l-13.819.573,0.573-13.759a1.5,1.5,0,0,0-.8-1.385l-12.2-6.382L61,100.794a1.5,1.5,0,0,0,0-1.6L53.625,87.569l12.2-6.384a1.5,1.5,0,0,0,.8-1.383L66.051,66.044,79.9,66.618a1.407,1.407,0,0,0,1.291-.8l6.385-12.2L99.2,60.99a1.5,1.5,0,0,0,1.594,0l11.63-7.376,6.384,12.2a1.418,1.418,0,0,0,1.28.8l0.1,0,13.768-.572L133.383,79.8a1.5,1.5,0,0,0,.8,1.385l12.2,6.384L139.007,99.2a1.5,1.5,0,0,0,0,1.6l7.375,11.628Z" transform="translate(-50 -50.003)" style="fill:#fff"/><path d="M77.41,90.9a1.122,1.122,0,0,1,1.293-.962l7.422,1.092a1.03,1.03,0,1,1-.3,2.037l-6.312-.928L79,95.618,84.5,96.426a1.03,1.03,0,1,1-.3,2.037L78.7,97.655l-0.613,4.166a1.131,1.131,0,0,1-2.237-.329Z" transform="translate(-50 -50.003)" style="fill:#fff"/><path d="M89.343,92.66a1.122,1.122,0,0,1,1.293-.962l4.548,0.669a5.186,5.186,0,0,1,3.487,1.814,3.894,3.894,0,0,1,.651,2.9l-0.006.037a3.809,3.809,0,0,1-3.452,3.376l1.986,3.433a1.311,1.311,0,0,1,.238.908,1.066,1.066,0,0,1-1.226.879,1.292,1.292,0,0,1-1.006-.743l-2.512-4.4-2.82-.415-0.5,3.42a1.131,1.131,0,0,1-2.237-.329Zm4.749,6c1.6,0.236,2.743-.451,2.933-1.743l0.006-.037c0.2-1.364-.672-2.255-2.328-2.5L91.446,93.9l-0.629,4.274Z" transform="translate(-50 -50.003)" style="fill:#fff"/><path d="M100.954,105.072L102.5,94.594a1.122,1.122,0,0,1,1.293-.962l7.4,1.089a1.02,1.02,0,0,1,.853,1.148,1.008,1.008,0,0,1-1.148.853L104.6,95.8l-0.487,3.31,5.475,0.805a1.024,1.024,0,0,1,.851,1.166,1,1,0,0,1-1.145.835l-5.475-.805-0.5,3.42,6.385,0.939a1.02,1.02,0,0,1,.853,1.148,1.009,1.009,0,0,1-1.148.853l-7.495-1.1A1.123,1.123,0,0,1,100.954,105.072Z" transform="translate(-50 -50.003)" style="fill:#fff"/><path d="M113.142,106.865l1.541-10.478a1.122,1.122,0,0,1,1.293-.962l7.4,1.089a1.02,1.02,0,0,1,.853,1.148,1.008,1.008,0,0,1-1.148.853l-6.294-.926L116.3,100.9l5.475,0.805a1.024,1.024,0,0,1,.851,1.166,1,1,0,0,1-1.145.835l-5.475-.805-0.5,3.42,6.385,0.939a1.02,1.02,0,0,1,.853,1.148,1.008,1.008,0,0,1-1.148.853l-7.494-1.1A1.122,1.122,0,0,1,113.142,106.865Z" transform="translate(-50 -50.003)" style="fill:#fff"/></svg>