<svg width="100" height="100" preserveAspectRatio="xMidYMid meet"  id="Layer_2" data-name="Layer 2" xmlns="http://www.w3.org/2000/svg" viewBox="0 0 100 63.773"><title>Icon_Card_100x100</title><path d="M139.669,68.114H60.331A10.343,10.343,0,0,0,50,78.445v43.111a10.343,10.343,0,0,0,10.331,10.331h79.338A10.343,10.343,0,0,0,150,121.555V78.445A10.343,10.343,0,0,0,139.669,68.114ZM60.331,70.7h79.338a7.757,7.757,0,0,1,7.748,7.748v3.528H52.583V78.445A7.757,7.757,0,0,1,60.331,70.7Zm87.086,13.859V90.8H52.583V84.555h94.835ZM139.669,129.3H60.331a7.757,7.757,0,0,1-7.748-7.748V93.38h94.835v28.176A7.757,7.757,0,0,1,139.669,129.3Z" transform="translate(-50 -68.114)" style="fill:#fff"/><path d="M121.766,120.6a8,8,0,1,1,8-8A8.007,8.007,0,0,1,121.766,120.6Zm0-13.414a5.415,5.415,0,1,0,5.415,5.416A5.422,5.422,0,0,0,121.766,107.186Z" transform="translate(-50 -68.114)" style="fill:#fff"/><path d="M130.749,120.6a8,8,0,1,1,8-8A8.007,8.007,0,0,1,130.749,120.6Zm0-13.414a5.415,5.415,0,1,0,5.416,5.416A5.422,5.422,0,0,0,130.749,107.186Z" transform="translate(-50 -68.114)" style="fill:#fff"/></svg>