<svg width="100" height="100" preserveAspectRatio="xMidYMid meet"  id="Layer_2" data-name="Layer 2" xmlns="http://www.w3.org/2000/svg" viewBox="0 0 100 97.873"><title>Icon_Islam-Symbol_100x100</title><path d="M128.243,60a48.093,48.093,0,0,0-29-9.478A48.937,48.937,0,1,0,128.263,138.9a1.688,1.688,0,0,0,.428-2.172,1.578,1.578,0,0,0-2.054-.639,40.513,40.513,0,0,1-15.661,3.133,39.765,39.765,0,0,1,0-79.531,40.965,40.965,0,0,1,15.654,3.13,1.722,1.722,0,0,0,2.076-.659A1.691,1.691,0,0,0,128.243,60Zm-17.267-3.547a43.005,43.005,0,0,0,0,86.01h4.04l-2.715.789a46.842,46.842,0,0,1-13.053,1.9,45.7,45.7,0,1,1,0-91.393,46.843,46.843,0,0,1,13.053,1.9l2.715,0.788h-4.04Z" transform="translate(-50.311 -50.523)" style="fill:#fff"/><path d="M150.227,93.386a1.424,1.424,0,0,0-1.506-1.073H135.489l-4.135-12.543a1.593,1.593,0,0,0-3.011,0l-4.134,12.542H110.975a1.621,1.621,0,0,0-1.506,1.073,1.715,1.715,0,0,0,.544,1.85l10.738,7.709-4.136,12.547a1.715,1.715,0,0,0,.543,1.852,1.636,1.636,0,0,0,1.952-.02l10.738-7.709,10.75,7.717a1.623,1.623,0,0,0,1.969-.008,1.709,1.709,0,0,0,.516-1.83l-4.137-12.549L149.7,95.224A1.711,1.711,0,0,0,150.227,93.386Zm-14.069,7.742a1.714,1.714,0,0,0-.536,1.844l2.952,9.012-7.616-5.6a1.619,1.619,0,0,0-1.965.01l-7.6,5.585,2.951-9.01a1.715,1.715,0,0,0-.543-1.853l-7.736-5.569h9.47a1.62,1.62,0,0,0,1.506-1.074l2.943-8.983,2.943,8.985a1.621,1.621,0,0,0,1.505,1.071h9.47Z" transform="translate(-50.311 -50.523)" style="fill:#fff"/></svg>