<svg width="100" height="100" preserveAspectRatio="xMidYMid meet"  id="Layer_2" data-name="Layer 2" xmlns="http://www.w3.org/2000/svg" viewBox="0 0 85.724 100"><title>Icon_Plane_100x100</title><path d="M93.84,150a1.285,1.285,0,0,1-.96-0.431L78.323,133.229l-20.089-6.122a1.285,1.285,0,0,1-.69-1.949l4.919-7.278a1.286,1.286,0,0,1,1.145-.563l23.735,1.474a1.286,1.286,0,0,1,1.04.652l11.663,20.706a1.285,1.285,0,0,1-.038,1.324l-5.086,7.935a1.285,1.285,0,0,1-.981.588C93.908,150,93.874,150,93.84,150ZM60.648,125.155l18.769,5.72a1.281,1.281,0,0,1,.585.375l13.67,15.343,3.754-5.858L86.486,121.311l-22.3-1.384Z" transform="translate(-57.323 -49.998)" style="fill:#fff"/><path d="M91.9,127.512l-2.026-1.581c7.648-9.8,14.78-19.858,21.2-29.906,4.154-6.5,8.138-13.2,11.521-19.357,2.316-4.22,4.568-8.548,6.692-12.864l2.306,1.135c-2.141,4.35-4.41,8.713-6.746,12.966-3.41,6.208-7.423,12.953-11.607,19.5C106.779,107.524,99.6,117.652,91.9,127.512Z" transform="translate(-57.323 -49.998)" style="fill:#fff"/><path d="M80.992,119.909l-2.338-1.068a333.322,333.322,0,0,1,27.222-48.45c3.183-4.693,6.535-9.371,9.965-13.9l2.05,1.551c-3.4,4.5-6.729,9.139-9.887,13.8A330.706,330.706,0,0,0,80.992,119.909Z" transform="translate(-57.323 -49.998)" style="fill:#fff"/><path d="M129.269,69.617l-2.22-1.3a33.428,33.428,0,0,0,3-6.715c0.924-2.9.771-3.831,0.721-4.135a6.086,6.086,0,0,0-2.888-4.212,5.954,5.954,0,0,0-4.429-.452,6.287,6.287,0,0,0-1.356.6,6.852,6.852,0,0,0-1.054.789s-0.38.333-.73,0.712c-0.567.614-2.205,2.738-4.463,5.954l-2.1-1.477c2.055-2.929,3.892-5.371,4.678-6.222,0.447-.484.909-0.888,0.929-0.9a9.363,9.363,0,0,1,1.428-1.06,8.867,8.867,0,0,1,1.945-.853,8.456,8.456,0,0,1,6.4.667,8.591,8.591,0,0,1,4.182,6.045c0.141,0.855.177,2.235-.808,5.332A36.061,36.061,0,0,1,129.269,69.617Z" transform="translate(-57.323 -49.998)" style="fill:#fff"/><polygon points="38.434 39.27 6.054 29.257 11.995 19.861 47.819 22.339 47.642 24.903 13.348 22.531 10.021 27.793 39.194 36.815 38.434 39.27" style="fill:#fff"/><polygon points="79.219 77.035 53.193 48.64 55.089 46.902 78.875 72.856 82.678 67.024 62.43 34.421 64.614 33.065 85.724 67.058 79.219 77.035" style="fill:#fff"/><path d="M126.922,70.192a11.256,11.256,0,0,0-12.552-8.046L113.98,59.6a13.828,13.828,0,0,1,15.413,9.878Z" transform="translate(-57.323 -49.998)" style="fill:#fff"/><path d="M108.754,86.94a1.286,1.286,0,0,1-1.081-1.979l6.82-10.64a1.285,1.285,0,1,1,2.164,1.387l-6.82,10.64A1.284,1.284,0,0,1,108.754,86.94Z" transform="translate(-57.323 -49.998)" style="fill:#fff"/><path d="M79.286,133.8a1.285,1.285,0,0,1-1.081-1.979l15.663-24.437a1.285,1.285,0,0,1,2.164,1.387L80.369,133.209A1.284,1.284,0,0,1,79.286,133.8Z" transform="translate(-57.323 -49.998)" style="fill:#fff"/><path d="M99.848,73.257L97.684,71.87l3.105-4.845a1.107,1.107,0,0,0-.3-1.533l-2.243-1.438a1.108,1.108,0,0,0-1.518.371L91.305,72.89,89.142,71.5l5.426-8.465a3.679,3.679,0,0,1,5.069-1.148l2.243,1.438a3.68,3.68,0,0,1,1.075,5.084Z" transform="translate(-57.323 -49.998)" style="fill:#fff"/><path d="M129.853,97.289l-2.17-1.378,5.295-8.335a1.081,1.081,0,0,0-.323-1.494l-2.243-1.437a1.078,1.078,0,0,0-1.489.326l-3.037,4.737-2.164-1.387,3.037-4.738a3.652,3.652,0,0,1,5.04-1.1l2.243,1.437a3.653,3.653,0,0,1,1.1,5.041Z" transform="translate(-57.323 -49.998)" style="fill:#fff"/></svg>