<svg width="100" height="100" preserveAspectRatio="xMidYMid meet"  id="Layer_2" data-name="Layer 2" xmlns="http://www.w3.org/2000/svg" viewBox="0 0 99.999 100"><title>Icon_Safe_100x100</title><path d="M148.5,150H51.5a1.5,1.5,0,0,1-1.5-1.5V51.5A1.5,1.5,0,0,1,51.5,50H148.5a1.5,1.5,0,0,1,1.5,1.5V148.5A1.5,1.5,0,0,1,148.5,150Zm-95.509-2.993h94.013V52.993H52.994v94.014Z" transform="translate(-50.001 -50)" style="fill:#fff"/><rect x="12.799" y="38.917" width="2.993" height="21.947" style="fill:#fff"/><path d="M135.191,137.084H64.3a1.5,1.5,0,0,1-1.5-1.5V124.832h2.993v9.26h67.9v-67.9h-67.9V74.2H62.8V64.693a1.5,1.5,0,0,1,1.5-1.5h70.895a1.5,1.5,0,0,1,1.5,1.5v70.9A1.5,1.5,0,0,1,135.191,137.084Z" transform="translate(-50.001 -50)" style="fill:#fff"/><path d="M70.6,88.9H58.148a1.5,1.5,0,0,1-1.5-1.5V74.955a1.5,1.5,0,0,1,1.5-1.5H70.6v2.993H59.644v9.461H70.6V88.9Z" transform="translate(-50.001 -50)" style="fill:#fff"/><path d="M70,88.929H68.057V85.936H70a1.406,1.406,0,0,0,1.4-1.4v-6.7a1.406,1.406,0,0,0-1.4-1.4H68.057V73.434H70a4.4,4.4,0,0,1,4.4,4.4v6.7A4.4,4.4,0,0,1,70,88.929Z" transform="translate(-50.001 -50)" style="fill:#fff"/><path d="M70.6,124.987H58.148a1.5,1.5,0,0,1-1.5-1.5V111.037a1.5,1.5,0,0,1,1.5-1.5H70.6v2.993H59.644v9.461H70.6v2.993Z" transform="translate(-50.001 -50)" style="fill:#fff"/><path d="M70,125.012H68.057v-2.993H70a1.406,1.406,0,0,0,1.4-1.4v-6.7a1.406,1.406,0,0,0-1.4-1.4H68.057v-2.993H70a4.4,4.4,0,0,1,4.4,4.4v6.7A4.4,4.4,0,0,1,70,125.012Z" transform="translate(-50.001 -50)" style="fill:#fff"/><path d="M100,119.58a20.646,20.646,0,1,1,20.645-20.646A20.67,20.67,0,0,1,100,119.58Zm0-38.3a17.653,17.653,0,1,0,17.653,17.653A17.673,17.673,0,0,0,100,81.281Z" transform="translate(-50.001 -50)" style="fill:#fff"/><path d="M100,105.266a5.749,5.749,0,1,1,5.749-5.749A5.756,5.756,0,0,1,100,105.266Zm0-9.254a3.5,3.5,0,1,0,3.5,3.5A3.509,3.509,0,0,0,100,96.012Z" transform="translate(-50.001 -50)" style="fill:#fff"/><path d="M99.974,109.1h-0.11a9.587,9.587,0,0,1-3.5-18.47l2.487-5.376a1.123,1.123,0,0,1,.984-0.651,1.1,1.1,0,0,1,1.022.59l2.991,5.555a9.641,9.641,0,0,1,5.7,8.874A9.585,9.585,0,0,1,99.974,109.1ZM99.948,88.235l-1.737,3.755a1.123,1.123,0,0,1-.65.589,7.34,7.34,0,1,0,5.083.1,1.118,1.118,0,0,1-.579-0.513Z" transform="translate(-50.001 -50)" style="fill:#fff"/><path d="M88.524,88.917" transform="translate(-50.001 -50)" style="fill:#fff"/><rect x="106.43" y="106.072" width="2.245" height="4.852" transform="translate(-94.456 43.239) rotate(-39.518)" style="fill:#fff"/><rect x="89.644" y="89.924" width="2.244" height="5.852" transform="translate(-87.551 62.713) rotate(-54.449)" style="fill:#fff"/><rect x="89.442" y="106.852" width="5.457" height="2.245" transform="translate(-99.704 52.901) rotate(-47.467)" style="fill:#fff"/><rect x="107.204" y="91.841" width="5.002" height="2.244" transform="translate(-83.641 31.585) rotate(-35.739)" style="fill:#fff"/><rect x="110.497" y="98.721" width="2.245" height="5.054" transform="translate(-52.242 149.968) rotate(-83.137)" style="fill:#fff"/><rect x="85.66" y="99.631" width="5.945" height="2.245" transform="matrix(0.997, -0.081, 0.081, 0.997, -57.906, -42.453)" style="fill:#fff"/><rect x="109.064" y="102.719" width="2.245" height="5.078" transform="translate(-84.31 103.645) rotate(-62.203)" style="fill:#fff"/><rect x="87.818" y="93.664" width="2.245" height="5.929" transform="translate(-76.92 108.466) rotate(-75.462)" style="fill:#fff"/><rect x="108.674" y="95.853" width="5.313" height="2.245" transform="translate(-70.753 -19) rotate(-14.516)" style="fill:#fff"/><rect x="86.939" y="103.536" width="5.826" height="2.244" transform="translate(-85.809 -2.229) rotate(-24.997)" style="fill:#fff"/><rect x="103.673" y="88.879" width="5.384" height="2.245" transform="translate(-76.147 83.066) rotate(-58.24)" style="fill:#fff"/><rect x="93.091" y="109.109" width="5.243" height="2.245" transform="translate(-92.872 106.129) rotate(-67.357)" style="fill:#fff"/><rect x="102.669" y="107.963" width="2.244" height="5.03" transform="translate(-82.297 -6.292) rotate(-20.653)" style="fill:#fff"/><rect x="92.771" y="87.089" width="2.245" height="5.704" transform="translate(-82.28 8.541) rotate(-29.793)" style="fill:#fff"/><path d="M126.308,123.611a1.123,1.123,0,0,1-1.11-.954L122.9,107.5c0-.026-0.007-0.052-0.009-0.077a3.278,3.278,0,0,1,.779-2.41,3.043,3.043,0,0,1,4.513-.2,3.3,3.3,0,0,1,1,2.52c0,0.025,0,.05-0.006.076l-1.751,15.214a1.123,1.123,0,0,1-1.095.994h-0.02Zm-1.182-16.4,1.03,6.79,0.783-6.806a1.043,1.043,0,0,0-.32-0.773,0.88,0.88,0,0,0-.663-0.267,0.87,0.87,0,0,0-.579.318A1.051,1.051,0,0,0,125.126,107.207Z" transform="translate(-50.001 -50)" style="fill:#fff"/><rect x="96.891" y="109.745" width="5.498" height="2.245" transform="translate(-61.648 160.038) rotate(-89.758)" style="fill:#fff"/></svg>