<svg width="100" height="100" preserveAspectRatio="xMidYMid meet"  id="Layer_2" data-name="Layer 2" xmlns="http://www.w3.org/2000/svg" viewBox="0 0 99.716 104.096"><title>Icon_Funeral-Cover_100x100</title><path d="M60.755,84.235a10.849,10.849,0,0,1,0-21.694,1.3,1.3,0,1,1,0,2.606,8.244,8.244,0,0,0,0,16.482A1.3,1.3,0,1,1,60.755,84.235Z" transform="translate(-50.142 -47.952)" style="fill:#fff"/><path d="M94.929,83.306a1.3,1.3,0,0,1,0-2.606,8.244,8.244,0,0,0,0-16.482,1.3,1.3,0,0,1,0-2.606A10.849,10.849,0,0,1,94.929,83.306Z" transform="translate(-50.142 -47.952)" style="fill:#fff"/><path d="M70.117,98.076a10.969,10.969,0,0,1-5.158-1.292,10.745,10.745,0,0,1-4.6-14.463,1.3,1.3,0,0,1,2.3,1.223A8.245,8.245,0,0,0,77.218,91.28a1.3,1.3,0,1,1,2.3,1.223A10.593,10.593,0,0,1,70.117,98.076Z" transform="translate(-50.142 -47.952)" style="fill:#fff"/><path d="M86.615,97.753a10.871,10.871,0,0,1-3.054-.439,10.426,10.426,0,0,1-6.343-5.141,1.3,1.3,0,1,1,2.3-1.223,7.844,7.844,0,0,0,4.774,3.862A8.411,8.411,0,0,0,94.6,89.332a7.845,7.845,0,0,0-.531-6.117,1.3,1.3,0,1,1,2.3-1.223,10.43,10.43,0,0,1,.713,8.134A11.048,11.048,0,0,1,86.615,97.753Z" transform="translate(-50.142 -47.952)" style="fill:#fff"/><path d="M94.717,64.4a1.3,1.3,0,0,1-1.149-1.915,7.845,7.845,0,0,0,.531-6.117,8.411,8.411,0,0,0-10.311-5.481,7.844,7.844,0,0,0-4.774,3.862,1.3,1.3,0,1,1-2.3-1.223,10.426,10.426,0,0,1,6.343-5.141A11.017,11.017,0,0,1,96.582,55.58a10.43,10.43,0,0,1-.713,8.134A1.3,1.3,0,0,1,94.717,64.4Z" transform="translate(-50.142 -47.952)" style="fill:#fff"/><path d="M61.01,64.734a1.3,1.3,0,0,1-1.152-.692,10.429,10.429,0,0,1-.713-8.133,10.9,10.9,0,0,1,5.309-6.33,10.743,10.743,0,0,1,14.56,4.281,1.3,1.3,0,1,1-2.3,1.223,8.136,8.136,0,0,0-11.036-3.2,8.307,8.307,0,0,0-4.05,4.821,7.841,7.841,0,0,0,.531,6.117A1.3,1.3,0,0,1,61.01,64.734Z" transform="translate(-50.142 -47.952)" style="fill:#fff"/><path d="M77.864,81.29a8.306,8.306,0,1,1,8.306-8.306A8.315,8.315,0,0,1,77.864,81.29Zm0-14.006a5.7,5.7,0,1,0,5.7,5.7A5.707,5.707,0,0,0,77.864,67.284Z" transform="translate(-50.142 -47.952)" style="fill:#fff"/><path d="M78.368,152.048a1.3,1.3,0,0,1-1.3-1.3V91.892a1.3,1.3,0,0,1,2.606,0v58.853A1.3,1.3,0,0,1,78.368,152.048Z" transform="translate(-50.142 -47.952)" style="fill:#fff"/><path d="M73.661,129.95c-3.361,0-7.556-1.986-11.163-5.593-5.457-5.456-7.2-12.258-3.978-15.485S68.548,107.393,74,112.851s7.2,12.258,3.978,15.484A5.927,5.927,0,0,1,73.661,129.95ZM62.805,109.838a3.333,3.333,0,0,0-2.443.877c-2.3,2.3.247,8.069,3.978,11.8s9.5,6.283,11.8,3.977-0.247-8.068-3.978-11.8C69.414,111.945,65.564,109.838,62.805,109.838Z" transform="translate(-50.142 -47.952)" style="fill:#fff"/><path d="M114.1,106.491a8.867,8.867,0,0,1,0-17.73,1.3,1.3,0,1,1,0,2.606,6.262,6.262,0,0,0,0,12.518A1.3,1.3,0,0,1,114.1,106.491Z" transform="translate(-50.142 -47.952)" style="fill:#fff"/><path d="M141.178,105.755a1.3,1.3,0,1,1,0-2.606,6.262,6.262,0,0,0,0-12.518,1.3,1.3,0,0,1,0-2.606A8.867,8.867,0,0,1,141.178,105.755Z" transform="translate(-50.142 -47.952)" style="fill:#fff"/><path d="M121.518,117.457a9.009,9.009,0,0,1-8.551-6.227,8.532,8.532,0,0,1,.584-6.654,1.3,1.3,0,1,1,2.3,1.223,5.948,5.948,0,0,0-.4,4.638,6.313,6.313,0,0,0,3.078,3.664,6.177,6.177,0,0,0,8.378-2.426,1.3,1.3,0,1,1,2.3,1.223A8.664,8.664,0,0,1,121.518,117.457Z" transform="translate(-50.142 -47.952)" style="fill:#fff"/><path d="M134.59,117.2a8.889,8.889,0,0,1-2.5-.358,8.531,8.531,0,0,1-5.189-4.206,1.3,1.3,0,0,1,2.3-1.223,5.948,5.948,0,0,0,3.619,2.927,6.393,6.393,0,0,0,7.836-4.165,5.948,5.948,0,0,0-.4-4.638,1.3,1.3,0,1,1,2.3-1.223,8.529,8.529,0,0,1,.583,6.654A9.026,9.026,0,0,1,134.59,117.2Z" transform="translate(-50.142 -47.952)" style="fill:#fff"/><path d="M141.009,90.779a1.3,1.3,0,0,1-1.149-1.915,5.948,5.948,0,0,0,.4-4.638,6.394,6.394,0,0,0-7.836-4.165,5.947,5.947,0,0,0-3.62,2.928,1.3,1.3,0,1,1-2.3-1.223,8.531,8.531,0,0,1,5.189-4.205,9,9,0,0,1,11.05,5.874,8.532,8.532,0,0,1-.584,6.654A1.3,1.3,0,0,1,141.009,90.779Z" transform="translate(-50.142 -47.952)" style="fill:#fff"/><path d="M114.3,91.04a1.3,1.3,0,0,1-1.152-.692,8.785,8.785,0,0,1,3.755-11.825,8.907,8.907,0,0,1,6.712-.7,8.53,8.53,0,0,1,5.189,4.206,1.3,1.3,0,1,1-2.3,1.223,5.946,5.946,0,0,0-3.619-2.927,6.317,6.317,0,0,0-4.759.5,6.176,6.176,0,0,0-2.676,8.3A1.3,1.3,0,0,1,114.3,91.04Z" transform="translate(-50.142 -47.952)" style="fill:#fff"/><path d="M127.656,104.158a6.852,6.852,0,1,1,6.852-6.852A6.859,6.859,0,0,1,127.656,104.158Zm0-11.1a4.246,4.246,0,1,0,4.246,4.246A4.251,4.251,0,0,0,127.656,93.06Z" transform="translate(-50.142 -47.952)" style="fill:#fff"/><path d="M128.056,146.8a1.3,1.3,0,0,1-1.3-1.3V112.287a1.3,1.3,0,0,1,2.606,0v33.206A1.3,1.3,0,0,1,128.056,146.8Z" transform="translate(-50.142 -47.952)" style="fill:#fff"/><path d="M124.337,138.16a8.735,8.735,0,0,1-2.433-.375,17.441,17.441,0,0,1-10.758-10.758c-0.735-2.519-.382-4.663.992-6.037s3.519-1.726,6.038-.992a16.1,16.1,0,0,1,6.613,4.144c4.431,4.43,5.815,9.988,3.152,12.651A4.937,4.937,0,0,1,124.337,138.16Zm-8.577-15.928a2.453,2.453,0,0,0-1.779.6c-0.661.661-.782,1.924-0.333,3.465a14.874,14.874,0,0,0,8.986,8.986c1.542,0.449,2.8.328,3.465-.333h0c0.661-.662.782-1.924,0.333-3.466a14.876,14.876,0,0,0-8.985-8.985A6.1,6.1,0,0,0,115.76,122.232Z" transform="translate(-50.142 -47.952)" style="fill:#fff"/></svg>