<svg width="100" height="100" preserveAspectRatio="xMidYMid meet"  id="Layer_2" data-name="Layer 2" xmlns="http://www.w3.org/2000/svg" viewBox="0 0 85.429 100"><title>Icon_Milestone_100x100</title><path d="M97.837,77.266V53.47l0.556-.4a16.461,16.461,0,0,1,9.562-3.418h0.014a14.653,14.653,0,0,1,6.455,1.7,15.05,15.05,0,0,0,14.211-.025l1.92-.9-0.3,22.374-0.754.353a19.463,19.463,0,0,1-9.445,1.935,19.9,19.9,0,0,1-6.459-1.611,13.176,13.176,0,0,0-5.351-1.236,13.948,13.948,0,0,0-8.268,3.344Zm10.586-7.675a15.9,15.9,0,0,1,6.14,1.418,17.194,17.194,0,0,0,5.653,1.435,16.536,16.536,0,0,0,7.409-1.355l0.221-16.547a18.284,18.284,0,0,1-8.372,1.127,19.065,19.065,0,0,1-6.145-1.889,12.149,12.149,0,0,0-5.362-1.468h-0.012a13.5,13.5,0,0,0-7.463,2.54V72.008a15.234,15.234,0,0,1,7.713-2.415Z" transform="translate(-57.285 -49.655)" style="fill:#fff"/><polygon points="2.093 100 0 98.367 40.552 46.401 40.552 24.89 43.207 24.89 43.207 47.315 42.926 47.675 2.093 100" style="fill:#fff"/><rect x="119.098" y="88.919" width="2.655" height="67.121" transform="translate(-107.629 54.353) rotate(-39.311)" style="fill:#fff"/><polygon points="36.342 73.437 28.944 62.794 31.124 61.279 36.22 68.611 41.733 59.76 49.023 68.682 53.152 61.383 55.463 62.69 49.424 73.367 42.025 64.313 36.342 73.437" style="fill:#fff"/></svg>