<svg width="100" height="100" preserveAspectRatio="xMidYMid meet" xmlns="http://www.w3.org/2000/svg" viewBox="0 0 98.001 98.29"><title>Icon_SelfService_White</title><g id="Layer_2" data-name="Layer 2"><g id="Layer_2-2" data-name="Layer 2"><path d="M71.419,24.886" style="fill:none;stroke:#fff;stroke-linecap:round;stroke-linejoin:round;stroke-width:4px"/><path d="M59.375,48.882H14.045a2,2,0,1,1,0-4H59.375a2,2,0,1,1,0,4Z" style="fill:#fff"/><path d="M59.375,59.374H14.045a2,2,0,1,1,0-4H59.375a2,2,0,1,1,0,4Z" style="fill:#fff"/><path d="M59.375,69.867H14.045a2,2,0,1,1,0-4H59.375a2,2,0,1,1,0,4Z" style="fill:#fff"/><path d="M38.827,79.857H14.045a2,2,0,1,1,0-4H38.827a2,2,0,0,1,0,4Z" style="fill:#fff"/><path d="M75.237,56.438A2,2,0,0,1,73.5,55.431c-7.783-13.605-9.7-19-10.273-23.288A8.249,8.249,0,0,1,68.7,22.817,7.793,7.793,0,0,1,78.315,26.6L81.3,31.6l2.462,4.292a2,2,0,0,1-3.471,1.99l-2.443-4.261-3.008-5.035a3.807,3.807,0,0,0-4.787-2,4.323,4.323,0,0,0-2.861,5.032c.494,3.705,2.347,8.835,9.781,21.831a2,2,0,0,1-1.734,2.993Z" style="fill:#fff"/><path d="M68.415,98.29c-9.286,0-17.351-3.6-22.729-6.836a2,2,0,1,1,2.063-3.426c5.567,3.353,14.25,7.128,24,6.085a26.144,26.144,0,0,0,7.145-1.73A26.01,26.01,0,0,0,91.8,79.912c4.168-9.01,1.394-17.479.35-20.668a29.432,29.432,0,0,0-1.453-3.611l-10.778-18.4a2,2,0,0,1,3.451-2.021L94.183,53.68q.04.067.073.138a33.341,33.341,0,0,1,1.68,4.149c1.076,3.285,4.318,13.187-.51,23.625A29.7,29.7,0,0,1,80.437,96.074a30.549,30.549,0,0,1-8.259,2.016A35.222,35.222,0,0,1,68.415,98.29Z" style="fill:#fff"/><path d="M52.771,38.389H14.045a2,2,0,1,1,0-4H52.771a2,2,0,0,1,0,4Z" style="fill:#fff"/><path d="M52.771,27.774H14.045a2,2,0,0,1,0-4H52.771a2,2,0,0,1,0,4Z" style="fill:#fff"/><path d="M68.551,91.741H4.869A4.875,4.875,0,0,1,0,86.872V68.407a2,2,0,0,1,4,0V86.872a.87.87,0,0,0,.869.869H68.551a.87.87,0,0,0,.868-.869V48.5a2,2,0,0,1,4,0V86.872A4.874,4.874,0,0,1,68.551,91.741Z" style="fill:#fff"/><path d="M71.419,25.886a2,2,0,0,1-2-2V4.869A.87.87,0,0,0,68.551,4H17.792a2,2,0,0,1,0-4H68.551a4.874,4.874,0,0,1,4.868,4.869V23.886A2,2,0,0,1,71.419,25.886Z" style="fill:#fff"/><path d="M2,70.407H1.98A2,2,0,0,1,0,68.387L.282,40.666,0,19.048a2,2,0,0,1,.618-1.471,1.978,1.978,0,0,1,1.5-.551l3.688.213h8.842a1.146,1.146,0,0,0,1.146-1.145V2a2,2,0,0,1,4,0V16.093a5.151,5.151,0,0,1-5.146,5.145h-8.9c-.039,0-.077,0-.115,0l-1.6-.092L4.282,40.66,4,68.428A2,2,0,0,1,2,70.407Z" style="fill:#fff"/><path d="M2,21.022a2,2,0,0,1-1.466-3.36L16.325.64A2,2,0,1,1,19.258,3.36L3.466,20.382A1.994,1.994,0,0,1,2,21.022Z" style="fill:#fff"/></g></g></svg>