<svg width="100" height="100" preserveAspectRatio="xMidYMid meet"  xmlns="http://www.w3.org/2000/svg" viewBox="0 0 101 56.203"><title>Icon-Student-100x100</title><g id="Layer_2" data-name="Layer 2"><g id="Layer_2-2" data-name="Layer 2"><path fill="#FFFFFF"  d="M50.492,35.805a9.01,9.01,0,0,1-2.769-.393L2.3,20.088C.734,19.559.5,18.652.5,18.159s.234-1.4,1.8-1.93L47.723.906A10.258,10.258,0,0,1,53.356.883L98.683,15.768c1.571.516,1.813,1.421,1.817,1.915s-.222,1.4-1.785,1.946L53.361,35.387A9.1,9.1,0,0,1,50.492,35.805ZM3.874,18.159,48.468,33.2a7.68,7.68,0,0,0,4.128-.018L97.13,17.712,52.629,3.1a7.954,7.954,0,0,0-4.161.017ZM2.665,17.7h0Z" style="stroke:#FFFFFF;stroke-miterlimit:10"/><path fill="#FFFFFF"  d="M17.546,22.18" style="stroke:#FFFFFF;stroke-linecap:round;stroke-miterlimit:10;stroke-width:0.5px"/><path fill="#FFFFFF"  d="M17.546,53.644a1.166,1.166,0,0,1-1.166-1.166V24.741a1.166,1.166,0,0,1,2.331,0V52.478A1.166,1.166,0,0,1,17.546,53.644Z" style="stroke:#FFFFFF;stroke-miterlimit:10"/><path fill="#FFFFFF"  d="M83.66,53.644a1.166,1.166,0,0,1-1.166-1.166V25.139a1.166,1.166,0,0,1,2.331,0v27.34A1.166,1.166,0,0,1,83.66,53.644Z" style="stroke:#FFFFFF;stroke-miterlimit:10"/><path fill="#FFFFFF"  d="M50.52,53.8a1.162,1.162,0,0,1-.884-.405C45.254,48.3,40.9,45.609,39.177,45.109a23.019,23.019,0,0,0-3.525-.678c-.94-.094-1.579-.1-1.586-.1a17.591,17.591,0,0,0-5.09.769,19.541,19.541,0,0,0-10.333,8.089,1.166,1.166,0,0,1-1.954-1.271,21.875,21.875,0,0,1,11.6-9.045A19.9,19.9,0,0,1,34.062,42h0c.042,0,.762,0,1.823.108a25.045,25.045,0,0,1,3.942.76c2.053.6,6.83,3.487,11.575,9A1.166,1.166,0,0,1,50.52,53.8Z" style="stroke:#FFFFFF;stroke-miterlimit:10"/><path fill="#FFFFFF"  d="M50.737,54.087a1.166,1.166,0,0,1-.963-1.82c1.164-1.716,5.457-7.468,11.806-9.394A22.232,22.232,0,0,1,67.347,42a22.18,22.18,0,0,1,5.776.872c6.079,1.853,10.072,6.982,11.507,9.1a1.166,1.166,0,1,1-1.93,1.307c-1.3-1.914-4.889-6.542-10.256-8.178a20.014,20.014,0,0,0-5.1-.771,20.189,20.189,0,0,0-5.091.77c-5.616,1.7-9.5,6.915-10.553,8.472A1.165,1.165,0,0,1,50.737,54.087Z" style="stroke:#FFFFFF;stroke-miterlimit:10"/><rect fill="#FFFFFF"  x="92.405" y="20.549" width="2.331" height="25.67" style="stroke:#FFFFFF;stroke-miterlimit:10"/><path fill="#FFFFFF"  d="M93.571,52.486a4.2,4.2,0,1,1,4.2-4.2A4.207,4.207,0,0,1,93.571,52.486Zm0-6.073a1.871,1.871,0,1,0,1.871,1.871A1.873,1.873,0,0,0,93.571,46.413Z" style="stroke:#FFFFFF;stroke-miterlimit:10"/><path fill="#FFFFFF"  d="M96.607,55.7a1.166,1.166,0,0,1-1.166-1.166V48.694a1.166,1.166,0,1,1,2.331,0v5.843A1.166,1.166,0,0,1,96.607,55.7Z" style="stroke:#FFFFFF;stroke-miterlimit:10"/><path fill="#FFFFFF"  d="M90.534,55.7a1.166,1.166,0,0,1-1.166-1.166V48.694a1.166,1.166,0,1,1,2.331,0v5.843A1.166,1.166,0,0,1,90.534,55.7Z" style="stroke:#FFFFFF;stroke-miterlimit:10"/></g></g></svg>