<svg width="100" height="100" preserveAspectRatio="xMidYMid meet"  id="Layer_2" data-name="Layer 2" xmlns="http://www.w3.org/2000/svg" viewBox="0 0 100 65.481"><title>Icon_Access-to-funds_100x100</title><rect x="38.879" y="5.425" width="2.472" height="11.284" style="fill:#fff"/><rect x="62.476" y="19.79" width="2.472" height="15.949" style="fill:#fff"/><rect x="62.476" y="4.945" width="2.472" height="14.845" style="fill:#fff"/><path d="M101.919,77.857c-8.959,0-13.04-2.747-13.04-5.3s4.081-5.3,13.04-5.3,13.04,2.747,13.04,5.3S110.879,77.857,101.919,77.857Zm0-8.126c-6.865,0-10.568,2.006-10.568,2.827s3.7,2.827,10.568,2.827,10.568-2.006,10.568-2.827S108.784,69.732,101.919,69.732Z" transform="translate(-50 -67.26)" style="fill:#fff"/><path d="M110.676,104.487l-0.477-2.425,0.576-.113c1.246-.541,1.708-1.091,1.712-1.334l2.471,0.043c-0.018,1.021-.612,2.478-3.341,3.619l-0.238.072Z" transform="translate(-50 -67.26)" style="fill:#fff"/><path d="M102.739,99.051c-0.2,0-.4,0-0.6,0a25.024,25.024,0,0,1-9.39-1.761l1.022-2.251a22.533,22.533,0,0,0,8.412,1.54,24.107,24.107,0,0,0,7.731-.976c2.084-.691,2.563-1.434,2.567-1.64L114.948,94c-0.02,1.161-.775,2.788-4.26,3.943A26.129,26.129,0,0,1,102.739,99.051Z" transform="translate(-50 -67.26)" style="fill:#fff"/><path d="M90.117,86.942" transform="translate(-50 -67.26)" style="fill:#fff"/><path d="M102.568,92.452c-0.244,0-.49,0-0.741-0.007a27.556,27.556,0,0,1-8.883-1.468l0.87-2.314a25.439,25.439,0,0,0,8.056,1.31c6.862,0.108,10.6-1.822,10.616-2.642l2.471,0.043C114.914,89.855,111.012,92.452,102.568,92.452Z" transform="translate(-50 -67.26)" style="fill:#fff"/><path d="M102.568,85.209c-0.244,0-.49,0-0.741-0.007a27.9,27.9,0,0,1-8.726-1.41c-3.525-1.282-4.24-2.946-4.22-4.116l2.471,0.043c0,0.208.465,0.975,2.594,1.75a25.409,25.409,0,0,0,7.924,1.261c6.867,0.113,10.6-1.822,10.616-2.642l2.471,0.043C114.914,82.612,111.012,85.209,102.568,85.209Z" transform="translate(-50 -67.26)" style="fill:#fff"/><rect x="42.403" y="33.233" width="2.472" height="2.782" style="fill:#fff"/><rect x="18.862" y="19.126" width="2.472" height="20.915" style="fill:#fff"/><rect x="42.403" y="19.639" width="2.472" height="14.154" style="fill:#fff"/><path d="M81.9,91.685c-8.96,0-13.04-2.747-13.04-5.3s4.081-5.3,13.04-5.3,13.04,2.747,13.04,5.3S90.862,91.685,81.9,91.685Zm0-8.125c-6.865,0-10.568,2.006-10.568,2.826s3.7,2.827,10.568,2.827,10.568-2.006,10.568-2.827S88.767,83.559,81.9,83.559Z" transform="translate(-50 -67.26)" style="fill:#fff"/><path d="M71.371,110.3c-2.106-1.151-2.529-2.451-2.513-3.34l2.471,0.043a2.129,2.129,0,0,0,1.227,1.128Z" transform="translate(-50 -67.26)" style="fill:#fff"/><path d="M73.946,105.159c-4.243-1.295-5.106-3.111-5.083-4.407l2.471,0.043c-0.005.319,0.8,1.227,3.333,2Z" transform="translate(-50 -67.26)" style="fill:#fff"/><path d="M92.461,104.362l-1.175-2.175a4,4,0,0,0,.782-0.532l1.663,1.829A6.443,6.443,0,0,1,92.461,104.362Z" transform="translate(-50 -67.26)" style="fill:#fff"/><path d="M93.731,103.483l-1.663-1.829a0.888,0.888,0,0,0,.335-0.491l2.471,0.042A3.122,3.122,0,0,1,93.731,103.483Z" transform="translate(-50 -67.26)" style="fill:#fff"/><path d="M82.4,99.25q-0.312,0-.626-0.005a27.772,27.772,0,0,1-8.7-1.41c-3.516-1.282-4.23-2.946-4.209-4.115l2.471,0.043c0,0.208.463,0.976,2.585,1.75a25.262,25.262,0,0,0,7.9,1.26,25.114,25.114,0,0,0,7.939-.984c2.147-.7,2.641-1.45,2.645-1.658l2.471,0.043c-0.02,1.169-.791,2.806-4.35,3.966A27.123,27.123,0,0,1,82.4,99.25Z" transform="translate(-50 -67.26)" style="fill:#fff"/><path d="M135.154,132.74a19.731,19.731,0,0,1,0-39.462,1.236,1.236,0,0,1,0,2.472,17.259,17.259,0,0,0,0,34.518A1.236,1.236,0,1,1,135.154,132.74Z" transform="translate(-50 -67.26)" style="fill:#fff"/><path d="M77.466,115.548a6.755,6.755,0,0,1,0-13.509v2.472a4.283,4.283,0,1,0,0,8.565v2.472Z" transform="translate(-50 -67.26)" style="fill:#fff"/><rect x="27.466" y="34.779" width="41.962" height="2.472" style="fill:#fff"/><path d="M96.479,115.548H77.466a1.236,1.236,0,1,1,0-2.472H96.479A1.236,1.236,0,1,1,96.479,115.548Z" transform="translate(-50 -67.26)" style="fill:#fff"/><path d="M72.417,112.259a1.235,1.235,0,0,1-.981-0.482l-0.393-.511L60.428,97.545a1.236,1.236,0,1,1,1.955-1.512L73.4,110.27A1.236,1.236,0,0,1,72.417,112.259Z" transform="translate(-50 -67.26)" style="fill:#fff"/><path d="M52.005,104.579l-0.632-.962A6.639,6.639,0,0,1,50,99.55a6.7,6.7,0,0,1,12.428-3.487l4.044,5.255-1.959,1.508-4.17-5.433a4.232,4.232,0,0,0-7.872,2.158,4.186,4.186,0,0,0,.886,2.591l0.057,0.08,0.657,1Z" transform="translate(-50 -67.26)" style="fill:#fff"/><path d="M85.488,130.468a13.057,13.057,0,0,1-2.15-.159L70.705,128.1a6.788,6.788,0,0,1-3.935-2.5L51.029,103.189a1.236,1.236,0,0,1,2.023-1.421l15.741,22.407a4.375,4.375,0,0,0,2.339,1.486l12.632,2.213a12.486,12.486,0,0,0,3.527-.01l32.253-5.832a1.236,1.236,0,1,1,.44,2.432L87.731,130.3A13.3,13.3,0,0,1,85.488,130.468Z" transform="translate(-50 -67.26)" style="fill:#fff"/><path d="M148.764,95.75h-13.61a1.236,1.236,0,0,1,0-2.472h13.61A1.236,1.236,0,0,1,148.764,95.75Z" transform="translate(-50 -67.26)" style="fill:#fff"/><path d="M148.764,132.74h-13.61a1.236,1.236,0,1,1,0-2.472h13.61A1.236,1.236,0,1,1,148.764,132.74Z" transform="translate(-50 -67.26)" style="fill:#fff"/></svg>