<svg width="100" height="100" preserveAspectRatio="xMidYMid meet"  id="Layer_2" data-name="Layer 2" xmlns="http://www.w3.org/2000/svg" viewBox="0 0 100 51.232"><title>Icon_Coins_100x100</title><path d="M102.844,105.961a51.683,51.683,0,0,1-7.143-.481l0.289-2.066a49.652,49.652,0,0,0,6.853.461c6.376,0,12.236-1.132,15.676-3.028l1.007,1.827C115.792,104.732,109.556,105.961,102.844,105.961Z" transform="translate(-50 -74.368)" style="fill:#fff"/><path d="M114,93.345a44.448,44.448,0,0,0-11.155-1.313c-0.923,0-1.852.024-2.763,0.072l-0.11-2.083c0.947-.05,1.913-0.075,2.873-0.075a46.566,46.566,0,0,1,11.689,1.382Z" transform="translate(-50 -74.368)" style="fill:#fff"/><path d="M119.572,101.433" transform="translate(-50 -74.368)" style="fill:#fff;stroke:#000;stroke-miterlimit:10;stroke-width:2.086199884323858px"/><path d="M122.161,104.917" transform="translate(-50 -74.368)" style="fill:#fff;stroke:#000;stroke-miterlimit:10;stroke-width:2.086199884323858px"/><path d="M102.8,112.925a51.426,51.426,0,0,1-7.2-.491l0.293-2.066a49.328,49.328,0,0,0,6.907.471c10.57,0,18.091-3.08,18.231-5.844l2.083,0.1C122.861,110.182,112.459,112.925,102.8,112.925Z" transform="translate(-50 -74.368)" style="fill:#fff"/><path d="M119.49,108.4" transform="translate(-50 -74.368)" style="fill:#fff;stroke:#000;stroke-miterlimit:10;stroke-width:2.086199884323858px"/><path d="M122.075,111.882" transform="translate(-50 -74.368)" style="fill:#fff;stroke:#000;stroke-miterlimit:10;stroke-width:2.086199884323858px"/><path d="M102.748,119.877a51.513,51.513,0,0,1-7.028-.468l0.286-2.067a49.359,49.359,0,0,0,6.742.448c10.552,0,18.061-3.074,18.2-5.833l2.083,0.1C122.776,117.139,112.39,119.877,102.748,119.877Z" transform="translate(-50 -74.368)" style="fill:#fff"/><rect x="118.887" y="108.043" width="6.258" height="2.086" transform="translate(-38.433 155.502) rotate(-89.357)" style="fill:#fff"/><path d="M145.515,112.91a13.719,13.719,0,0,1-5.274-1.31,42.841,42.841,0,0,1-11.646-8.071c-7.189-6.763-12.906-16-9.343-19.784h0c1.6-1.7,4.678-1.682,8.67.048a42.848,42.848,0,0,1,11.646,8.072c7.189,6.763,12.906,16,9.343,19.783A4.471,4.471,0,0,1,145.515,112.91ZM120.772,85.175c-1.919,2.04,1.409,9.455,9.252,16.834a40.75,40.75,0,0,0,11.046,7.677c3.033,1.315,5.4,1.514,6.32.533,1.919-2.04-1.409-9.455-9.252-16.835s-15.448-10.251-17.366-8.209h0Z" transform="translate(-50 -74.368)" style="fill:#fff"/><path d="M143.881,111.693" transform="translate(-50 -74.368)" style="fill:#fff;stroke:#000;stroke-miterlimit:10;stroke-width:2.086199884323858px"/><path d="M143.379,116.005" transform="translate(-50 -74.368)" style="fill:#fff;stroke:#000;stroke-miterlimit:10;stroke-width:2.086199884323858px"/><path d="M140.7,117.94c-4.54,0-11.45-4.237-16.9-9.368-7.174-6.75-12.876-15.967-9.313-19.755l1.52,1.43c-1.919,2.04,1.4,9.443,9.222,16.806,7.7,7.242,15.287,10.154,17.283,8.236l1.445,1.5A4.527,4.527,0,0,1,140.7,117.94Z" transform="translate(-50 -74.368)" style="fill:#fff"/><rect x="141.963" y="112.511" width="7.298" height="2.086" transform="translate(-87.174 65.393) rotate(-46.108)" style="fill:#fff"/><rect x="114.067" y="86.177" width="6.763" height="2.087" transform="translate(-76.732 37.618) rotate(-46.345)" style="fill:#fff"/><path d="M76.632,111.683a42.845,42.845,0,0,1-14.013-2.1c-4.093-1.476-6.347-3.573-6.347-5.906h2.086c0,2.8,7.5,5.921,18.274,5.921s18.274-3.121,18.274-5.921c0-1.424-2.126-3.012-5.55-4.144l0.655-1.981c4.5,1.489,6.981,3.663,6.981,6.124,0,2.333-2.254,4.43-6.347,5.906A42.842,42.842,0,0,1,76.632,111.683Z" transform="translate(-50 -74.368)" style="fill:#fff"/><path d="M93.36,107.155" transform="translate(-50 -74.368)" style="fill:#fff;stroke:#000;stroke-miterlimit:10;stroke-width:2.086199884323858px"/><path d="M95.949,110.64" transform="translate(-50 -74.368)" style="fill:#fff;stroke:#000;stroke-miterlimit:10;stroke-width:2.086199884323858px"/><path d="M76.59,118.647a42.677,42.677,0,0,1-13.984-2.1c-4.085-1.476-6.334-3.573-6.334-5.905h2.086c0,2.8,7.488,5.921,18.233,5.921,10.57,0,18.091-3.08,18.231-5.845l2.083,0.1C96.648,115.9,86.247,118.647,76.59,118.647Z" transform="translate(-50 -74.368)" style="fill:#fff"/><rect x="92.247" y="106.282" width="7.299" height="2.086" transform="translate(-62.499 127.641) rotate(-89.357)" style="fill:#fff"/><rect x="53.957" y="106.4" width="6.763" height="2.086" transform="translate(-100.494 89.677) rotate(-89.608)" style="fill:#fff"/><path d="M93.278,114.125" transform="translate(-50 -74.368)" style="fill:#fff;stroke:#000;stroke-miterlimit:10;stroke-width:2.086199884323858px"/><path d="M95.863,117.6" transform="translate(-50 -74.368)" style="fill:#fff;stroke:#000;stroke-miterlimit:10;stroke-width:2.086199884323858px"/><path d="M76.536,125.6a42.612,42.612,0,0,1-13.963-2.1c-4.079-1.474-6.325-3.568-6.325-5.9h2.086c0,2.8,7.475,5.91,18.2,5.91,10.552,0,18.061-3.074,18.2-5.833l2.083,0.1C96.563,122.862,86.177,125.6,76.536,125.6Z" transform="translate(-50 -74.368)" style="fill:#fff"/><rect x="92.167" y="113.251" width="7.287" height="2.086" transform="translate(-69.552 134.447) rotate(-89.357)" style="fill:#fff"/><rect x="53.938" y="113.369" width="6.752" height="2.086" transform="translate(-107.487 96.575) rotate(-89.608)" style="fill:#fff"/><path d="M85.593,95.879" transform="translate(-50 -74.368)" style="fill:#fff;stroke:#000;stroke-miterlimit:10;stroke-width:2.086199884323858px"/><path d="M70.36,99.6C60.49,99.6,50,96.8,50,91.6c0-3.3,4.426-6.029,11.841-7.311L62.2,86.341c-6.946,1.2-10.11,3.566-10.11,5.255,0,2.8,7.5,5.921,18.274,5.921a39.238,39.238,0,0,0,14.144-2.3L85.3,97.145A41.349,41.349,0,0,1,70.36,99.6Z" transform="translate(-50 -74.368)" style="fill:#fff"/><path d="M87.088,95.076" transform="translate(-50 -74.368)" style="fill:#fff;stroke:#000;stroke-miterlimit:10;stroke-width:2.086199884323858px"/><path d="M89.677,98.56" transform="translate(-50 -74.368)" style="fill:#fff;stroke:#000;stroke-miterlimit:10;stroke-width:2.086199884323858px"/><path d="M70.319,106.568a42.679,42.679,0,0,1-13.985-2.1C52.25,102.99,50,100.893,50,98.561h2.086c0,2.8,7.488,5.921,18.233,5.921,10.57,0,18.091-3.08,18.231-5.844l2.083,0.1C90.377,103.825,79.975,106.568,70.319,106.568Z" transform="translate(-50 -74.368)" style="fill:#fff"/><rect x="87.779" y="96.027" width="3.649" height="2.086" transform="translate(-58.488 111.186) rotate(-89.343)" style="fill:#fff"/><rect x="47.686" y="94.32" width="6.763" height="2.086" transform="translate(-94.655 71.386) rotate(-89.594)" style="fill:#fff"/><path d="M81.337,90.383a42.852,42.852,0,0,1-14.013-2.1c-4.093-1.476-6.347-3.573-6.347-5.906s2.254-4.43,6.347-5.906a42.852,42.852,0,0,1,14.013-2.1,42.849,42.849,0,0,1,14.013,2.1c4.093,1.476,6.347,3.573,6.347,5.906s-2.254,4.43-6.347,5.906A42.849,42.849,0,0,1,81.337,90.383Zm0-13.928c-10.769,0-18.274,3.12-18.274,5.921s7.5,5.921,18.274,5.921,18.274-3.12,18.274-5.921S92.106,76.455,81.337,76.455Z" transform="translate(-50 -74.368)" style="fill:#fff"/><path d="M98.065,85.855" transform="translate(-50 -74.368)" style="fill:#fff;stroke:#000;stroke-miterlimit:10;stroke-width:2.086199884323858px"/><path d="M100.654,89.339" transform="translate(-50 -74.368)" style="fill:#fff;stroke:#000;stroke-miterlimit:10;stroke-width:2.086199884323858px"/><path d="M81.3,97.347a42.677,42.677,0,0,1-13.984-2.1c-4.085-1.476-6.334-3.573-6.334-5.905h2.086c0,2.8,7.488,5.921,18.233,5.921,10.57,0,18.091-3.08,18.231-5.844l2.083,0.1C101.354,94.6,90.952,97.347,81.3,97.347Z" transform="translate(-50 -74.368)" style="fill:#fff"/><rect x="96.953" y="84.981" width="7.298" height="2.086" transform="translate(-36.571 111.264) rotate(-89.343)" style="fill:#fff"/><rect x="58.663" y="85.099" width="6.763" height="2.086" transform="translate(-74.535 73.207) rotate(-89.594)" style="fill:#fff"/></svg>