<svg width="100" height="100" preserveAspectRatio="xMidYMid meet"  id="Layer_2" data-name="Layer 2" xmlns="http://www.w3.org/2000/svg" viewBox="0 0 88.127 100"><title>Icon_Global_100x100</title><path d="M105.344,137.556a49.133,49.133,0,0,1-37.687-80.7,1.218,1.218,0,0,1,1.868,1.565,46.708,46.708,0,0,0,65.188,66.305,1.219,1.219,0,1,1,1.536,1.892A48.952,48.952,0,0,1,105.344,137.556Z" transform="translate(-56.171 -50.055)" style="fill:#fff"/><path d="M105.8,127.626a38.5,38.5,0,1,1,38.5-38.5A38.545,38.545,0,0,1,105.8,127.626Zm0-74.565a36.064,36.064,0,1,0,36.064,36.064A36.1,36.1,0,0,0,105.8,53.061Z" transform="translate(-56.171 -50.055)" style="fill:#fff"/><path d="M105.169,149.692h-0.02a1.219,1.219,0,0,1-1.2-1.238l0.179-10.959a1.219,1.219,0,0,1,1.218-1.2h0.02a1.219,1.219,0,0,1,1.2,1.238l-0.179,10.959A1.219,1.219,0,0,1,105.169,149.692Z" transform="translate(-56.171 -50.055)" style="fill:#fff"/><path d="M127.844,150.055h-0.02l-44.092-.72a1.219,1.219,0,0,1,.02-2.437h0.02l44.091,0.72A1.219,1.219,0,0,1,127.844,150.055Z" transform="translate(-56.171 -50.055)" style="fill:#fff"/><path d="M131.62,117.233a1.214,1.214,0,0,1-.866-0.362L78.713,64.241a1.219,1.219,0,1,1,1.733-1.714l52.041,52.63A1.219,1.219,0,0,1,131.62,117.233Z" transform="translate(-56.171 -50.055)" style="fill:#fff"/><path d="M79.761,116.169a1.219,1.219,0,0,1-.852-2.09L131.2,62.9a1.218,1.218,0,1,1,1.7,1.741L80.613,115.821A1.214,1.214,0,0,1,79.761,116.169Z" transform="translate(-56.171 -50.055)" style="fill:#fff"/><path d="M122.683,120.472a28.314,28.314,0,0,1-8.66-1.521c-7.7-2.5-15.886-7.829-23.061-15s-12.5-15.365-15-23.061c-2.591-7.974-1.854-14.53,2.075-18.458,8.016-8.015,26.254-2.338,41.52,12.929s20.945,33.5,12.929,41.519h0C130.1,119.263,126.738,120.472,122.683,120.472ZM87.91,61.223a11.149,11.149,0,0,0-8.153,2.928c-3.248,3.248-3.773,8.924-1.48,15.982,2.384,7.337,7.5,15.183,14.409,22.091s14.754,12.026,22.091,14.41c7.059,2.294,12.734,1.768,15.982-1.48h0c6.932-6.932,1.132-24.012-12.929-38.073C107.8,67.049,96.233,61.223,87.91,61.223Z" transform="translate(-56.171 -50.055)" style="fill:#fff"/><path d="M138.567,128.215a5.483,5.483,0,1,1,5.483-5.483A5.489,5.489,0,0,1,138.567,128.215Zm0-8.53a3.046,3.046,0,1,0,3.046,3.046A3.05,3.05,0,0,0,138.567,119.686Z" transform="translate(-56.171 -50.055)" style="fill:#fff"/><path d="M76.445,60.679a1.619,1.619,0,0,1-.3-0.029l-7.6-1.44a1.425,1.425,0,0,1-.758-2.459l6.236-6.236a1.425,1.425,0,0,1,2.46.758l1.44,7.6a1.533,1.533,0,0,1-.407,1.376A1.51,1.51,0,0,1,76.445,60.679Zm-5.622-3.517,4.456,0.845L74.435,53.55Z" transform="translate(-56.171 -50.055)" style="fill:#fff"/></svg>