<svg width="100" height="100" preserveAspectRatio="xMidYMid meet"  id="Layer_2" data-name="Layer 2" xmlns="http://www.w3.org/2000/svg" viewBox="0 0 69.547 100"><title>Icon_Flag_100x100</title><path d="M93.368,84.442V54.736l0.561-.4A20.847,20.847,0,0,1,106.035,50h0.016a18.569,18.569,0,0,1,8.164,2.164,19.757,19.757,0,0,0,18.621-.035l1.937-.91-0.373,28-0.761.356a24.665,24.665,0,0,1-11.99,2.459,25.329,25.329,0,0,1-8.209-2.051,17.287,17.287,0,0,0-7.035-1.617c-3.563.059-7.222,1.536-10.874,4.387Zm13.266-8.756a20.172,20.172,0,0,1,7.777,1.8,22.77,22.77,0,0,0,7.4,1.873,21.757,21.757,0,0,0,9.936-1.87l0.294-22.106a23.406,23.406,0,0,1-11.124,1.623,24.245,24.245,0,0,1-7.805-2.4,15.952,15.952,0,0,0-7.062-1.925h-0.014a17.864,17.864,0,0,0-9.989,3.446V79.1a19.572,19.572,0,0,1,10.315-3.412Z" transform="translate(-65.227 -50)" style="fill:#fff"/><rect x="28.141" y="24.541" width="2.678" height="67.069" style="fill:#fff"/><path d="M94.957,150c-14.774,0-29.73-3.115-29.73-9.068,0-5.5,12.61-8.219,23.409-8.878a1.339,1.339,0,1,1,.163,2.673c-13.633.832-20.894,4.138-20.894,6.2,0,2.606,10.538,6.39,27.052,6.39s27.052-3.784,27.052-6.39c0-2.155-7.59-5.529-21.842-6.258A1.339,1.339,0,0,1,100.3,132c11.248,0.575,24.383,3.261,24.383,8.933C124.687,146.885,109.731,150,94.957,150Z" transform="translate(-65.227 -50)" style="fill:#fff"/><path d="M94.707,142.927H94.666a6.061,6.061,0,0,1-4.12-1.689,1.339,1.339,0,1,1,1.864-1.922,3.406,3.406,0,0,0,2.275.933h0.022a3.4,3.4,0,0,0,2.3-.934,1.339,1.339,0,1,1,1.863,1.924A6.061,6.061,0,0,1,94.707,142.927Z" transform="translate(-65.227 -50)" style="fill:#fff"/></svg>