<svg width="100" height="100" preserveAspectRatio="xMidYMid meet"  xmlns="http://www.w3.org/2000/svg" viewBox="0 0 100.5 52.381"><title>Icon-Vehicle001-100x100_1</title><g id="Layer_2" data-name="Layer 2"><g id="Layer_2-2" data-name="Layer 2"><path fill="#FFFFFF"  d="M59.533,30.716H54.514a1.219,1.219,0,0,0-1.03,1.03.956.956,0,0,0,1.03,1.03h5.018a1.03,1.03,0,0,0,0-2.061Z" style="fill:#FFFFFF;stroke:#FFFFFF;stroke-miterlimit:10;stroke-width:0.5px"/><path fill="#FFFFFF"  d="M100.249,38.735V29.416a6.452,6.452,0,0,0-6.228-5.869H80.783L73.333,4.923A6.214,6.214,0,0,0,67.563.25H28.41a6.214,6.214,0,0,0-5.77,4.673l-7.45,18.624H6.479A6.452,6.452,0,0,0,.251,29.416V39.04A6.11,6.11,0,0,0,6.3,44.783H17.806l.219.838a8.7,8.7,0,0,0,8.235,6.51,8.511,8.511,0,0,0,8.233-6.5l.211-.849H61.269l.211.849a8.511,8.511,0,0,0,8.233,6.5,8.7,8.7,0,0,0,8.235-6.51l.219-.838H94.2a6.11,6.11,0,0,0,6.05-5.743ZM60.887,2.311h6.675a3.952,3.952,0,0,1,3.755,3.1l7.215,18.135H60.887ZM37.326,2.132H58.647V23.369H37.326ZM24.655,5.412a3.952,3.952,0,0,1,3.755-3.1h6.676V23.547H17.441ZM32.1,46.4a6.486,6.486,0,0,1-11.682,0,5.692,5.692,0,0,1,0-5.3,6.486,6.486,0,0,1,11.682,0,5.692,5.692,0,0,1,0,5.3Zm43.453,0a6.486,6.486,0,0,1-11.682,0,5.692,5.692,0,0,1,0-5.3,6.486,6.486,0,0,1,11.682,0,5.692,5.692,0,0,1,0,5.3Zm22.454-7.31a4.025,4.025,0,0,1-3.987,3.628H77.978l-.211-.849a8.51,8.51,0,0,0-8.233-6.5,8.7,8.7,0,0,0-8.235,6.51l-.219.837H34.893l-.219-.837a8.7,8.7,0,0,0-8.235-6.51,8.51,8.51,0,0,0-8.233,6.5L18,42.722H6.479a4.025,4.025,0,0,1-3.987-3.628V29.775A3.815,3.815,0,0,1,6.3,25.787H94.2a3.815,3.815,0,0,1,3.807,3.988Z" style="fill:#FFFFFF;stroke:#FFFFFF;stroke-miterlimit:10;stroke-width:0.5px"/></g></g></svg>