<svg width="100" height="100" preserveAspectRatio="xMidYMid meet"  id="Layer_2" data-name="Layer 2" xmlns="http://www.w3.org/2000/svg" viewBox="0 0 100 99.815"><title>Icon_Africa_100x100</title><path d="M100,52.584A47.416,47.416,0,1,1,52.492,100,47.516,47.516,0,0,1,100,52.584m0-2.492A49.908,49.908,0,1,0,150,100a49.954,49.954,0,0,0-50-49.908h0Z" transform="translate(-50 -50.092)" style="fill:#fff"/><path d="M105.238,144.655c-3,0-3.879-1.731-4.755-4.218a23.957,23.957,0,0,0-.913-2.312c-0.418-.886-0.888-1.685-1.343-2.457-1.5-2.545-3.048-5.176-.314-8.429,1.608-1.914.534-4.1-1.29-7.222-0.39-.667-0.793-1.358-1.125-2.021-0.249-.5-0.5-1.051-0.752-1.624-0.872-1.953-1.859-4.167-3.25-4.643a2.819,2.819,0,0,0-2.234.4c-4.188,2.242-5.465,1.736-9.254-.364-0.909-.5-2.04-1.131-3.447-1.834-6.868-3.427-6.824-7.881-6.77-13.519,0.005-.545.011-1.109,0.011-1.693,0-5.885,1.181-7.074,4.094-9.425,0.509-.411,1.085-0.877,1.716-1.431,3.969-3.483,8.471-4.686,13.236-5.96l0.647-.173c3.544-.95,5.886-1.578,7.651-0.536a4.163,4.163,0,0,1,1.843,2.778c0.675,2.731,1.612,3.029,3.6,2.683a10.869,10.869,0,0,0,1.64-.44c1.534-.5,2.983-0.981,6.778.25,3.876,1.257,7.1,1.445,8.413.489a1.8,1.8,0,0,0,.7-1.634,5.191,5.191,0,0,0-.058-0.877c-0.122.016-.265,0.039-0.383,0.058a5.4,5.4,0,0,1-5.263-1.562c-1.945-1.942-1.862-3.426-1.45-4.33,1.147-2.516,5.665-2.472,7.555-2.339a14.689,14.689,0,0,0,4.655-.224A11.025,11.025,0,0,0,123,70.654c-5.837-3.073-8.551-2.433-12.1,2.853-1.524,2.273-2.435,3.064-3.448,3.024a1.971,1.971,0,0,1-1.6-1.141c-0.038.031-.08,0.066-0.125,0.106a5.452,5.452,0,0,1-5.793,1.259A5.3,5.3,0,0,1,97,71.8c-0.038-1.324-1.719-2.2-3.281-2.355-1.587-.156-3.61.369-4.063,2.363a7.8,7.8,0,0,1-3.887,5.4,9.449,9.449,0,0,1-7.817.146c-1.921-.746-2.944-2.2-2.737-3.9,0.323-2.636,3.482-5,7.349-5.488,0.139-.018.26-0.037,0.367-0.055-0.381-.324-0.881-0.688-1.182-0.907-1.167-.848-1.938-1.409-1.8-2.388a1.409,1.409,0,0,1,.946-1.129c0.817-.3,4.333-2.193,6.9-3.578,1.181-.637,2.254-1.216,2.986-1.6,1.237-.647,1.5-1.507,1.9-3.1a15.259,15.259,0,0,1,.551-1.858,1.9,1.9,0,0,1,1.626-1.329c1.456-.113,2.941,1.727,4,3.451,2.3,0.792,4.756,1.275,5.555,1.094a1.755,1.755,0,0,1,.665-1c0.9-.665,2.194-0.409,3.982-0.053,3.776,0.751,5.679.752,6.278-1.27l2.39,0.708c-1.351,4.557-6.235,3.586-9.153,3.006a18.289,18.289,0,0,0-1.866-.31,2.049,2.049,0,0,1-.833.982c-1.876,1.17-6.417-.286-8.283-0.966l-0.423-.154-0.228-.389a13.617,13.617,0,0,0-1.6-2.217c-0.086.3-.161,0.594-0.238,0.9-0.41,1.644-.874,3.507-3.162,4.7-0.725.379-1.788,0.952-2.958,1.583-2.358,1.272-4.3,2.315-5.63,2.984,1.371,1,2.852,2.13,2.48,3.583s-2.244,1.678-2.949,1.768c-3.171.4-5.052,2.187-5.191,3.319-0.064.521,0.329,0.949,1.165,1.274a6.98,6.98,0,0,0,5.746-.023,5.325,5.325,0,0,0,2.627-3.753c0.761-3.344,3.926-4.565,6.736-4.289,3.184,0.312,5.458,2.27,5.529,4.763a2.866,2.866,0,0,0,1.432,2.742,3.053,3.053,0,0,0,3.154-.846,2.869,2.869,0,0,1,2.29-.9,2.027,2.027,0,0,1,1.337.919,16.289,16.289,0,0,0,1.126-1.525c4.24-6.323,8.394-7.319,15.327-3.671,2.006,1.056,4.242,2.5,3.724,4.314-0.468,1.646-3,2.317-7.545,1.993-3.407-.243-4.937.507-5.111,0.887-0.048.105,0.023,0.613,0.944,1.532a2.992,2.992,0,0,0,3.1.866,2.789,2.789,0,0,1,2.425.382,3.678,3.678,0,0,1,.906,2.9,4.27,4.27,0,0,1-1.723,3.65c-2.745,2-7.849.773-10.647-.135-3.022-.98-3.948-0.675-5.231-0.253a13.277,13.277,0,0,1-1.992.529c-3.524.613-5.514-.787-6.442-4.54a1.7,1.7,0,0,0-.69-1.23c-0.863-.509-3.122.1-5.739,0.8l-0.648.174c-4.476,1.2-8.7,2.327-12.236,5.426-0.67.587-1.267,1.07-1.795,1.5-2.433,1.965-3.167,2.558-3.167,7.487,0,0.592-.005,1.164-0.011,1.717-0.053,5.5-.082,8.534,5.392,11.266,1.455,0.726,2.612,1.368,3.542,1.883,3.415,1.893,3.693,2.049,6.869.347a5.192,5.192,0,0,1,4.217-.56c2.418,0.827,3.64,3.568,4.718,5.986,0.24,0.537.471,1.055,0.7,1.523,0.3,0.591.662,1.217,1.049,1.879,1.647,2.82,3.9,6.682,1.046,10.083-1.539,1.831-.979,2.96.554,5.562,0.461,0.782.983,1.669,1.449,2.659a25.829,25.829,0,0,1,1.01,2.547c0.864,2.452,1.043,2.962,4.161,2.354,3.617-.706,3.854-1.2,4.733-3.017,0.258-.534.579-1.2,1.026-1.959a54.038,54.038,0,0,1,4.85-6.44,38.506,38.506,0,0,0,2.436-3.095,9.267,9.267,0,0,1,1.065-1.344c0.874-.962,1.356-1.492.659-3.994-1.031-3.7.954-4.552,2.873-5.372A14.857,14.857,0,0,0,128.4,114.6a13.293,13.293,0,0,0,5.126-8.561c0.026-.151.047-0.284,0.064-0.4a18.272,18.272,0,0,0-1.824,1.164c-1.943,1.369-3.637,1.694-5.032.97-1.441-.748-2.3-2.624-2.3-5.018,0-1.664-1.478-5.279-2.456-7.672-0.532-1.3-.951-2.328-1.121-2.959-0.3-1.117-.468-3.392,1.023-4.01,1.762-.73,3.208,1.765,3.827,2.83a32.826,32.826,0,0,1,1.939,4.207c1.583,3.911,2.338,5.045,3.974,4.548a42.485,42.485,0,0,0,6.146-2.458c0.913-.43,1.775-0.836,2.644-1.168a0.451,0.451,0,0,0,.307-0.221,4.291,4.291,0,0,0-1.444-2.585,7.8,7.8,0,0,0-1.425-.939,9.909,9.909,0,0,1-4.192-3.783c-1.054-1.969-.315-3.589.818-4.26,1.281-.76,3.281-0.457,4.621,1.592,1.074,1.645,1.31,1.628,3.121,1.494,0.378-.028.8-0.058,1.271-0.077,3.443-.132,4.811,1.444,4.956,1.625l-1.949,1.552h0s-0.764-.771-2.907-0.687c-0.443.018-.835,0.047-1.189,0.072-2.306.171-3.6,0.13-5.39-2.617-0.549-.842-1.1-0.91-1.264-0.812a0.825,0.825,0,0,0,.109.941,7.648,7.648,0,0,0,3.233,2.8,9.209,9.209,0,0,1,1.947,1.337c0.266,0.266,2.59,2.662,2.12,4.868A2.8,2.8,0,0,1,141.3,98.4c-0.781.3-1.564,0.667-2.471,1.094a45.22,45.22,0,0,1-6.48,2.587c-4.079,1.243-5.638-2.6-7.011-6a30.912,30.912,0,0,0-1.786-3.891c-0.04-.07-0.08-0.137-0.119-0.2,0.2,0.55.518,1.333,0.852,2.148,1.177,2.879,2.641,6.462,2.641,8.615,0,1.36.394,2.514,0.957,2.806,0.482,0.251,1.376-.039,2.45-0.8,2.258-1.591,3.79-2.369,4.945-1.641s0.885,2.3.707,3.336a15.782,15.782,0,0,1-6.021,10.082,17.206,17.206,0,0,1-4.344,2.488c-1.826.781-1.9,0.811-1.452,2.413,0.987,3.546.077,4.916-1.216,6.338a7.077,7.077,0,0,0-.8.99,38.263,38.263,0,0,1-2.634,3.367,52.469,52.469,0,0,0-4.616,6.107c-0.4.674-.68,1.262-0.93,1.781-1.12,2.32-1.864,3.474-6.5,4.38A11.74,11.74,0,0,1,105.238,144.655Z" transform="translate(-50 -50.092)" style="fill:#fff"/></svg>