<svg width="100" height="100" preserveAspectRatio="xMidYMid meet"  id="Layer_2" data-name="Layer 2" xmlns="http://www.w3.org/2000/svg" viewBox="0 0 90.964 100"><title>Icon_Cash-Back_100x100</title><path d="M131.992,150a17.929,17.929,0,0,1,0-35.857,1.123,1.123,0,0,1,0,2.246,15.683,15.683,0,0,0,0,31.365A1.123,1.123,0,0,1,131.992,150Z" transform="translate(-54.518 -50)" style="fill:#fff"/><path d="M79.574,134.378a6.138,6.138,0,1,1,0-12.275v2.246a3.892,3.892,0,1,0,0,7.783v2.246Z" transform="translate(-54.518 -50)" style="fill:#fff"/><rect x="25.056" y="72.103" width="38.129" height="2.246" style="fill:#fff"/><path d="M96.85,134.378H79.574a1.123,1.123,0,0,1,0-2.246H96.85A1.123,1.123,0,0,1,96.85,134.378Z" transform="translate(-54.518 -50)" style="fill:#fff"/><path d="M74.56,130.925a1.121,1.121,0,0,1-.889-0.436l-9.647-12.47a1.123,1.123,0,0,1,1.777-1.374l9.647,12.47A1.123,1.123,0,0,1,74.56,130.925Z" transform="translate(-54.518 -50)" style="fill:#fff"/><path d="M55.8,123.619a6.081,6.081,0,0,1-1.287-3.761,6.139,6.139,0,0,1,11.417-3.132L64,117.874a3.892,3.892,0,0,0-7.24,1.984,3.852,3.852,0,0,0,.815,2.384Z" transform="translate(-54.518 -50)" style="fill:#fff"/><path d="M86.851,147.935a11.862,11.862,0,0,1-1.953-.144L73.419,145.78a6.167,6.167,0,0,1-3.576-2.271l-14.3-20.36a1.123,1.123,0,1,1,1.838-1.291l14.3,20.36a3.976,3.976,0,0,0,2.125,1.35l11.479,2.011a11.346,11.346,0,0,0,3.2-.009l29.308-5.3a1.123,1.123,0,0,1,.4,2.21l-29.308,5.3A12.071,12.071,0,0,1,86.851,147.935Z" transform="translate(-54.518 -50)" style="fill:#fff"/><path d="M144.359,116.389H131.992a1.123,1.123,0,1,1,0-2.246h12.367A1.123,1.123,0,1,1,144.359,116.389Z" transform="translate(-54.518 -50)" style="fill:#fff"/><path d="M144.359,150H131.992a1.123,1.123,0,1,1,0-2.246h12.367A1.123,1.123,0,1,1,144.359,150Z" transform="translate(-54.518 -50)" style="fill:#fff"/><path d="M82.765,86.9a8.142,8.142,0,1,1,8.142-8.142A8.152,8.152,0,0,1,82.765,86.9Zm0-14.038a5.9,5.9,0,1,0,5.9,5.9A5.9,5.9,0,0,0,82.765,72.86Z" transform="translate(-54.518 -50)" style="fill:#fff"/><path d="M99.808,101.367a8.142,8.142,0,1,1,8.142-8.142A8.152,8.152,0,0,1,99.808,101.367Zm0-14.038a5.9,5.9,0,1,0,5.9,5.9A5.9,5.9,0,0,0,99.808,87.328Z" transform="translate(-54.518 -50)" style="fill:#fff"/><path d="M77.067,112.745a8.142,8.142,0,1,1,8.142-8.142A8.152,8.152,0,0,1,77.067,112.745Zm0-14.038a5.9,5.9,0,1,0,5.9,5.9A5.9,5.9,0,0,0,77.067,98.707Z" transform="translate(-54.518 -50)" style="fill:#fff"/><path d="M77.067,68.367a1.123,1.123,0,0,1-1.123-1.123v-11.6a1.123,1.123,0,0,1,2.246,0v11.6A1.123,1.123,0,0,1,77.067,68.367Z" transform="translate(-54.518 -50)" style="fill:#fff"/><path d="M84.086,52.808a1.123,1.123,0,0,1-1.123-1.123V51.123a1.123,1.123,0,1,1,2.246,0v0.562A1.123,1.123,0,0,1,84.086,52.808Z" transform="translate(-54.518 -50)" style="fill:#fff"/><path d="M84.086,62.476a1.123,1.123,0,0,1-1.123-1.123V57.324a1.116,1.116,0,0,1,.075-0.4,1.118,1.118,0,0,1-.075-0.4V55.713a1.123,1.123,0,1,1,2.246,0v0.806a1.118,1.118,0,0,1-.075.4,1.116,1.116,0,0,1,.075.4v4.028A1.123,1.123,0,0,1,84.086,62.476Z" transform="translate(-54.518 -50)" style="fill:#fff"/><path d="M84.086,63.843a1.123,1.123,0,0,1-1.123-1.123V62.159a1.123,1.123,0,1,1,2.246,0V62.72A1.123,1.123,0,0,1,84.086,63.843Z" transform="translate(-54.518 -50)" style="fill:#fff"/><path d="M97.411,71.175a1.123,1.123,0,0,1-1.123-1.123V69.491a1.123,1.123,0,0,1,2.246,0v0.562A1.123,1.123,0,0,1,97.411,71.175Z" transform="translate(-54.518 -50)" style="fill:#fff"/><path d="M97.411,80.843a1.123,1.123,0,0,1-1.123-1.123V75.692a1.116,1.116,0,0,1,.075-0.4,1.118,1.118,0,0,1-.075-0.4V74.08a1.123,1.123,0,1,1,2.246,0v0.806a1.118,1.118,0,0,1-.075.4,1.116,1.116,0,0,1,.075.4V79.72A1.123,1.123,0,0,1,97.411,80.843Z" transform="translate(-54.518 -50)" style="fill:#fff"/><path d="M97.411,82.211a1.123,1.123,0,0,1-1.123-1.123V80.526a1.123,1.123,0,0,1,2.246,0v0.562A1.123,1.123,0,0,1,97.411,82.211Z" transform="translate(-54.518 -50)" style="fill:#fff"/><path d="M70.048,85.494a1.123,1.123,0,0,1-1.123-1.123V83.81a1.123,1.123,0,0,1,2.246,0v0.562A1.123,1.123,0,0,1,70.048,85.494Z" transform="translate(-54.518 -50)" style="fill:#fff"/><path d="M70.048,95.162a1.123,1.123,0,0,1-1.123-1.123V90.011a1.13,1.13,0,0,0,0-.806V88.4a1.123,1.123,0,1,1,2.246,0v0.806a1.13,1.13,0,0,0,0,.806v4.028A1.123,1.123,0,0,1,70.048,95.162Z" transform="translate(-54.518 -50)" style="fill:#fff"/><path d="M70.048,96.53a1.123,1.123,0,0,1-1.123-1.123V94.845a1.123,1.123,0,1,1,2.246,0v0.562A1.123,1.123,0,0,1,70.048,96.53Z" transform="translate(-54.518 -50)" style="fill:#fff"/><path d="M104.02,79.964a1.123,1.123,0,0,1-1.123-1.123v-11.6a1.123,1.123,0,0,1,2.246,0v11.6A1.123,1.123,0,0,1,104.02,79.964Z" transform="translate(-54.518 -50)" style="fill:#fff"/></svg>