<svg width="100" height="100" preserveAspectRatio="xMidYMid meet"  id="Layer_2" data-name="Layer 2" xmlns="http://www.w3.org/2000/svg" viewBox="0 0 100 91.387"><title>Icon_Save_TimeMoney_100x100</title><path d="M93.394,104.746a6.984,6.984,0,1,1,6.985-6.984A6.992,6.992,0,0,1,93.394,104.746Zm0-11.873a4.889,4.889,0,1,0,4.889,4.889A4.894,4.894,0,0,0,93.394,92.873Z" transform="translate(-50 -54.306)" style="fill:#fff"/><path d="M93.394,92.873a1.048,1.048,0,0,1-1.048-1.048V75.076a1.048,1.048,0,1,1,2.1,0V91.825A1.048,1.048,0,0,1,93.394,92.873Z" transform="translate(-50 -54.306)" style="fill:#fff"/><path d="M87.457,99.584H74.215a1.048,1.048,0,0,1,0-2.1H87.457A1.048,1.048,0,0,1,87.457,99.584Z" transform="translate(-50 -54.306)" style="fill:#fff"/><path d="M93.394,68.707a1.048,1.048,0,0,1-1.048-1.048V63.771a1.048,1.048,0,1,1,2.1,0v3.888A1.048,1.048,0,0,1,93.394,68.707Z" transform="translate(-50 -54.306)" style="fill:#fff"/><path d="M62.539,99.584H58.651a1.048,1.048,0,0,1,0-2.1h3.888A1.048,1.048,0,1,1,62.539,99.584Z" transform="translate(-50 -54.306)" style="fill:#fff"/><path d="M71.291,77.693a1.044,1.044,0,0,1-.741-0.307L67.8,74.637a1.048,1.048,0,0,1,1.482-1.482L72.032,75.9A1.048,1.048,0,0,1,71.291,77.693Z" transform="translate(-50 -54.306)" style="fill:#fff"/><path d="M115.5,77.693a1.048,1.048,0,0,1-.741-1.789l2.749-2.749a1.048,1.048,0,0,1,1.482,1.482l-2.749,2.749A1.044,1.044,0,0,1,115.5,77.693Z" transform="translate(-50 -54.306)" style="fill:#fff"/><path d="M68.773,124.647a1.048,1.048,0,0,1-.741-1.789l2.749-2.749a1.048,1.048,0,0,1,1.482,1.482l-2.749,2.749A1.044,1.044,0,0,1,68.773,124.647Z" transform="translate(-50 -54.306)" style="fill:#fff"/><path d="M97.273,141.056a4.368,4.368,0,0,1-3.323-1.263c-3.439-3.655,1.921-12.415,8.709-18.8s15.857-11.2,19.3-7.547h0c3.438,3.655-1.921,12.415-8.709,18.8C108.081,137.106,101.594,141.056,97.273,141.056Zm21.314-26.406c-2.754,0-8.23,2.512-14.225,8.153-7.554,7.106-10.1,13.693-8.6,15.287s8.229-.548,15.782-7.654,10.1-13.693,8.6-15.287A2.088,2.088,0,0,0,118.587,114.65Z" transform="translate(-50 -54.306)" style="fill:#fff"/><path d="M98.83,139.649" transform="translate(-50 -54.306)" style="fill:#fff;stroke:#2f292b;stroke-miterlimit:10;stroke-width:2.4861784380435914px"/><path d="M99.3,143.663" transform="translate(-50 -54.306)" style="fill:#fff;stroke:#2f292b;stroke-miterlimit:10;stroke-width:2.4861784380435914px"/><path d="M101.838,145.694a4.571,4.571,0,0,1-3.261-1.1L100.3,142.8c1.562,1.5,8.3-.69,15.713-7.669A37.487,37.487,0,0,0,123.7,125.4c1.315-2.594,1.657-4.712.89-5.526l1.811-1.7c1.112,1.182,1.931,3.591-.483,8.354a40,40,0,0,1-8.2,10.421C111.211,143.063,105.514,145.693,101.838,145.694Z" transform="translate(-50 -54.306)" style="fill:#fff"/><rect x="95.976" y="137.985" width="2.487" height="6.794" transform="translate(-120.869 52.628) rotate(-43.905)" style="fill:#fff"/><rect x="122.194" y="113.718" width="2.486" height="6.296" transform="translate(-96.545 63.231) rotate(-43.66)" style="fill:#fff"/><path d="M127.119,123.358l-0.105-2.484c8.641-.368,14.662-3.033,14.662-5.2h2.486C144.161,120.456,135.327,123.008,127.119,123.358Z" transform="translate(-50 -54.306)" style="fill:#fff"/><path d="M109.363,118.917" transform="translate(-50 -54.306)" style="fill:#fff;stroke:#2f292b;stroke-miterlimit:10;stroke-width:2.4861784380435914px"/><path d="M106.953,122.161" transform="translate(-50 -54.306)" style="fill:#fff;stroke:#2f292b;stroke-miterlimit:10;stroke-width:2.4861784380435914px"/><path d="M124.974,129.887q-0.9,0-1.774-.031l0.087-2.484q0.833,0.029,1.687.029c10.347,0,16.7-3.052,16.7-5.239h2.486C144.161,127.179,134.276,129.887,124.974,129.887Z" transform="translate(-50 -54.306)" style="fill:#fff"/><rect x="141.653" y="116.036" width="2.487" height="6.296" transform="translate(-50.829 -53.305) rotate(-0.4)" style="fill:#fff"/><path d="M116.594,108.42" transform="translate(-50 -54.306)" style="fill:#fff;stroke:#2f292b;stroke-miterlimit:10;stroke-width:2.4861784380435914px"/><path d="M130.774,112.159a38.769,38.769,0,0,1-14.011-2.309l0.948-2.3a36.237,36.237,0,0,0,13.063,2.122c10.371,0,16.739-3.052,16.739-5.24,0-1.509-3.155-3.581-9.186-4.624l0.424-2.45c7.043,1.218,11.249,3.862,11.249,7.074C150,109.451,140.094,112.159,130.774,112.159Z" transform="translate(-50 -54.306)" style="fill:#fff"/><path d="M115.2,107.671" transform="translate(-50 -54.306)" style="fill:#fff;stroke:#2f292b;stroke-miterlimit:10;stroke-width:2.4861784380435914px"/><path d="M112.791,110.916" transform="translate(-50 -54.306)" style="fill:#fff;stroke:#2f292b;stroke-miterlimit:10;stroke-width:2.4861784380435914px"/><path d="M114.972,115.115l-1.587-.8-0.127-.118a4.526,4.526,0,0,1-1.628-3.1l2.483-.125a2.043,2.043,0,0,0,.712,1.281l1.269,0.641Z" transform="translate(-50 -54.306)" style="fill:#fff"/><path d="M130.812,118.642a45.524,45.524,0,0,1-9.535-.96l0.53-2.429a43.008,43.008,0,0,0,9,.9c10.347,0,16.7-3.052,16.7-5.24H150C150,115.934,140.114,118.642,130.812,118.642Z" transform="translate(-50 -54.306)" style="fill:#fff"/><rect x="111.616" y="107.829" width="2.487" height="3.397" transform="translate(-51.23 -53.025) rotate(-0.647)" style="fill:#fff"/><rect x="147.491" y="104.792" width="2.487" height="6.296" transform="translate(-50.759 -53.252) rotate(-0.405)" style="fill:#fff"/><path d="M120.555,103.575c-9.32,0-19.225-2.708-19.225-7.726s9.905-7.726,19.225-7.726,19.226,2.708,19.226,7.726S129.875,103.575,120.555,103.575Zm0-12.966c-10.371,0-16.739,3.052-16.739,5.24s6.368,5.24,16.739,5.24,16.739-3.052,16.739-5.24S130.927,90.609,120.555,90.609Z" transform="translate(-50 -54.306)" style="fill:#fff"/><path d="M104.983,99.087" transform="translate(-50 -54.306)" style="fill:#fff;stroke:#2f292b;stroke-miterlimit:10;stroke-width:2.4861784380435914px"/><path d="M102.573,102.332" transform="translate(-50 -54.306)" style="fill:#fff;stroke:#2f292b;stroke-miterlimit:10;stroke-width:2.4861784380435914px"/><path d="M120.593,110.058c-12.344,0-18.994-3.795-19.183-7.543l2.483-.126c0.109,2.164,6.515,5.182,16.7,5.182,10.347,0,16.7-3.052,16.7-5.239h2.486C139.781,107.35,129.9,110.058,120.593,110.058Z" transform="translate(-50 -54.306)" style="fill:#fff"/><rect x="101.378" y="95.848" width="2.487" height="6.794" transform="translate(-51.129 -53.125) rotate(-0.656)" style="fill:#fff"/><rect x="137.272" y="96.207" width="2.487" height="6.296" transform="translate(-50.699 -53.325) rotate(-0.405)" style="fill:#fff"/><path d="M83.6,140.7a1.052,1.052,0,0,1-.25-0.03,43.815,43.815,0,1,1,51.134-58.847,1.048,1.048,0,0,1-1.945.78,41.721,41.721,0,1,0-48.69,56.032A1.048,1.048,0,0,1,83.6,140.7Z" transform="translate(-50 -54.306)" style="fill:#fff"/><path d="M93.394,134.933a1.048,1.048,0,0,1-1.048-1.048V129.07a1.048,1.048,0,0,1,2.1,0v4.816A1.048,1.048,0,0,1,93.394,134.933Z" transform="translate(-50 -54.306)" style="fill:#fff"/></svg>