<svg width="100" height="100" preserveAspectRatio="xMidYMid meet"  id="Layer_2" data-name="Layer 2" xmlns="http://www.w3.org/2000/svg" viewBox="0 0 60.214 100"><title>Icon_Mobile_App_100x100</title><path d="M118.6,50.144H81.4A11.521,11.521,0,0,0,69.893,61.656v76.987a11.517,11.517,0,0,0,11.506,11.5h37.2a11.517,11.517,0,0,0,11.5-11.5V61.657A11.517,11.517,0,0,0,118.6,50.144Zm8.5,88.5a8.5,8.5,0,0,1-8.5,8.5H81.4a8.5,8.5,0,0,1-8.506-8.5V61.657A8.509,8.509,0,0,1,81.4,53.146h37.2a8.505,8.505,0,0,1,8.5,8.511v76.986Z" transform="translate(-69.893 -50.144)" style="fill:#fff"/><path d="M100,133.736a5.751,5.751,0,1,0,5.752,5.748A5.756,5.756,0,0,0,100,133.736Zm0,8.506a2.752,2.752,0,1,1,2.754-2.758A2.759,2.759,0,0,1,100,142.242Z" transform="translate(-69.893 -50.144)" style="fill:#fff"/><path d="M76.36,131.632h47.285V68.658H76.36v62.973Zm3-59.97h41.283V128.63H79.36V71.661Z" transform="translate(-69.893 -50.144)" style="fill:#fff"/></svg>