<svg width="100" height="100" preserveAspectRatio="xMidYMid meet"  xmlns="http://www.w3.org/2000/svg" viewBox="0 0 100 97.958"><title>Icon-Everday-Sunshine-100x100</title><g id="Layer_2" data-name="Layer 2"><g id="Layer_2-2" data-name="Layer 2"><rect fill="#FFFFFF"  x="51.336" width="3.081" height="12.397"/><rect fill="#FFFFFF"  x="87.603" y="45.584" width="12.397" height="3.081"/><rect fill="#FFFFFF"  x="75.617" y="16.644" width="12.396" height="3.081" transform="translate(11.105 63.178) rotate(-45)"/><rect fill="#FFFFFF"  x="22.396" y="11.988" width="3.081" height="12.395" transform="translate(-5.848 22.252) rotate(-45.001)"/><rect fill="#FFFFFF"  x="35.675" y="3.114" width="3.08" height="12.396" transform="translate(-0.73 14.956) rotate(-22.509)"/><rect fill="#FFFFFF"  x="84.487" y="29.927" width="12.395" height="3.081" transform="translate(-5.139 37.102) rotate(-22.502)"/><rect fill="#FFFFFF"  x="62.338" y="7.772" width="12.396" height="3.08" transform="translate(33.704 69.067) rotate(-67.498)"/><rect fill="#FFFFFF"  x="13.526" y="25.265" width="3.08" height="12.395" transform="translate(-19.767 33.342) rotate(-67.502)"/><rect fill="#FFFFFF"  x="89.152" y="56.589" width="3.08" height="12.395" transform="translate(-2.03 122.534) rotate(-67.492)"/><path fill="#FFFFFF"  d="M82.524,71.025a13.389,13.389,0,0,0-6.755,1.823,19.087,19.087,0,0,0-4.5-7.318A26.029,26.029,0,1,0,26.923,45.147c-.172-.007-.343-.012-.515-.012a26.411,26.411,0,0,0,0,52.823H82.524a13.467,13.467,0,0,0,0-26.934Zm0,23.853H26.409A23.331,23.331,0,1,1,48.344,63.656l.585,1.628,1.548-.768a15.9,15.9,0,0,1,7.116-1.68A16.124,16.124,0,0,1,73.344,75.675l.519,2.536,1.981-1.667a10.384,10.384,0,1,1,6.68,18.333ZM68.935,63.5a19.226,19.226,0,0,0-11.342-3.746,18.9,18.9,0,0,0-6.959,1.322A26.373,26.373,0,0,0,30.014,45.4,22.947,22.947,0,1,1,68.935,63.5Z"/></g></g></svg>