<svg width="100" height="100" preserveAspectRatio="xMidYMid meet"  xmlns="http://www.w3.org/2000/svg" viewBox="0 0 100 87.004"><title>Icon-Estate-100x100.svg</title><g id="Layer_2" data-name="Layer 2"><g id="Layer_2-2" data-name="Layer 2"><path fill="#FFFFFF"  d="M98.742,87H88.98a1.258,1.258,0,0,1,0-2.515h8.5V3.223H67.52v4.82a1.258,1.258,0,1,1-2.515,0V1.966A1.258,1.258,0,0,1,66.263.708h32.48A1.258,1.258,0,0,1,100,1.966V85.741A1.258,1.258,0,0,1,98.742,87Z"/><path fill="#FFFFFF"  d="M72.376,87H50.759a1.258,1.258,0,0,1,0-2.515H71.118V11.863l-18.494-9.2-18.472,9.2v18.75a1.258,1.258,0,1,1-2.515,0V11.084a1.257,1.257,0,0,1,.7-1.126L52.063.132a1.256,1.256,0,0,1,1.121,0L72.936,9.958a1.257,1.257,0,0,1,.7,1.126V85.746A1.258,1.258,0,0,1,72.376,87Z"/><path fill="#FFFFFF"  d="M65.816,28.926H39.454A1.258,1.258,0,0,1,38.2,27.668V18.246a1.258,1.258,0,0,1,1.258-1.258H65.816a1.258,1.258,0,0,1,1.258,1.258v9.422A1.258,1.258,0,0,1,65.816,28.926Zm-25.1-2.515H64.559V19.5H40.712Z"/><path fill="#FFFFFF"  d="M65.816,44.639H45.24a1.258,1.258,0,1,1,0-2.515H64.559V35.218H43.6a1.258,1.258,0,0,1,0-2.515H65.816a1.258,1.258,0,0,1,1.258,1.258v9.422A1.258,1.258,0,0,1,65.816,44.639Z"/><path fill="#FFFFFF"  d="M65.816,60.353H50.5a1.258,1.258,0,1,1,0-2.515H64.559V50.932H51.484a1.258,1.258,0,0,1,0-2.515H65.816a1.258,1.258,0,0,1,1.258,1.258V59.1A1.258,1.258,0,0,1,65.816,60.353Z"/><path fill="#FFFFFF"  d="M65.816,76.067H50.5a1.258,1.258,0,0,1-1.258-1.258V65.388A1.258,1.258,0,0,1,50.5,64.13H65.816a1.258,1.258,0,0,1,1.258,1.258v9.422A1.258,1.258,0,0,1,65.816,76.067ZM51.753,73.552H64.559V66.645H51.753Z"/><path fill="#FFFFFF"  d="M52.635,44.636a1.258,1.258,0,0,1-1.258-1.258V33.96a1.258,1.258,0,0,1,2.515,0v9.418A1.258,1.258,0,0,1,52.635,44.636Z"/><path fill="#FFFFFF"  d="M46.09,28.926a1.258,1.258,0,0,1-1.258-1.258V18.246a1.258,1.258,0,1,1,2.515,0v9.421A1.258,1.258,0,0,1,46.09,28.926Z"/><path fill="#FFFFFF"  d="M59.309,76.067a1.258,1.258,0,0,1-1.258-1.258V65.388a1.258,1.258,0,0,1,2.515,0v9.422A1.258,1.258,0,0,1,59.309,76.067Z"/><path fill="#FFFFFF"  d="M59.309,28.926a1.258,1.258,0,0,1-1.258-1.258V18.246a1.258,1.258,0,0,1,2.515,0v9.421A1.258,1.258,0,0,1,59.309,28.926Z"/><line fill="#FFFFFF"  x1="79.285" y1="36.473" x2="79.285" y2="44.194" style="fill:#FFFFFF"/><rect fill="#FFFFFF"  x="78.027" y="36.473" width="2.515" height="7.722"/><line fill="#FFFFFF"  x1="88.98" y1="36.473" x2="88.98" y2="44.194" style="fill:#FFFFFF"/><rect fill="#FFFFFF"  x="87.722" y="36.473" width="2.515" height="7.722"/><line fill="#FFFFFF"  x1="79.285" y1="49.219" x2="79.285" y2="56.941" style="fill:#FFFFFF"/><rect fill="#FFFFFF"  x="78.027" y="49.22" width="2.515" height="7.722"/><line fill="#FFFFFF"  x1="88.98" y1="49.219" x2="88.98" y2="56.941" style="fill:#FFFFFF"/><rect fill="#FFFFFF"  x="87.722" y="49.22" width="2.515" height="7.722"/><line fill="#FFFFFF"  x1="79.285" y1="10.979" x2="79.285" y2="18.701" style="fill:#FFFFFF"/><rect fill="#FFFFFF"  x="78.027" y="10.979" width="2.515" height="7.722"/><line fill="#FFFFFF"  x1="88.98" y1="10.979" x2="88.98" y2="18.701" style="fill:#FFFFFF"/><rect fill="#FFFFFF"  x="87.722" y="10.979" width="2.515" height="7.722"/><line fill="#FFFFFF"  x1="79.285" y1="23.726" x2="79.285" y2="31.448" style="fill:#FFFFFF"/><rect fill="#FFFFFF"  x="78.027" y="23.726" width="2.515" height="7.722"/><line fill="#FFFFFF"  x1="88.98" y1="23.726" x2="88.98" y2="31.448" style="fill:#FFFFFF"/><rect fill="#FFFFFF"  x="87.722" y="23.726" width="2.515" height="7.722"/><line fill="#FFFFFF"  x1="79.285" y1="61.527" x2="79.285" y2="69.249" style="fill:#FFFFFF"/><rect fill="#FFFFFF"  x="78.027" y="61.527" width="2.515" height="7.722"/><line fill="#FFFFFF"  x1="88.98" y1="61.527" x2="88.98" y2="69.249" style="fill:#FFFFFF"/><rect fill="#FFFFFF"  x="87.722" y="61.527" width="2.515" height="7.722"/><path fill="#FFFFFF"  d="M88.98,87a1.258,1.258,0,0,1-1.258-1.258V75.98H73.633v9.761a1.258,1.258,0,0,1-2.515,0V74.722a1.258,1.258,0,0,1,1.258-1.258h16.6a1.258,1.258,0,0,1,1.258,1.258V85.741A1.258,1.258,0,0,1,88.98,87Z"/><path fill="#FFFFFF"  d="M50.47,87H28.115a1.258,1.258,0,0,1-1.258-1.258V65.521H15.66V85.746A1.258,1.258,0,0,1,14.4,87H8.834a1.258,1.258,0,0,1-1.258-1.258V55.763A1.258,1.258,0,0,1,8.834,54.5H50.47a1.258,1.258,0,0,1,1.258,1.258V85.746A1.258,1.258,0,0,1,50.47,87Zm-21.1-2.515h19.84V57.02H10.092V84.488h3.053V64.264A1.258,1.258,0,0,1,14.4,63.006H28.115a1.258,1.258,0,0,1,1.258,1.258Z"/><path fill="#FFFFFF"  d="M57.327,57.02H1.258A1.257,1.257,0,0,1,.37,54.872L28.765,26.593a1.388,1.388,0,0,1,.9-.367,1.257,1.257,0,0,1,.891.378l7.035,7.189v-2.9a1.258,1.258,0,0,1,1.258-1.258H43.6a1.258,1.258,0,0,1,1.258,1.271l-.105,10.208L58.226,54.883a1.258,1.258,0,0,1-.9,2.137ZM4.3,54.5H54.337l-11.746-12a1.257,1.257,0,0,1-.359-.893l.1-9.458H40.1v4.724a1.258,1.258,0,0,1-2.156.88l-8.3-8.485Z"/><path fill="#FFFFFF"  d="M45.736,78.477H32.8a1.258,1.258,0,0,1-1.258-1.258V64.288A1.258,1.258,0,0,1,32.8,63.031H45.736a1.258,1.258,0,0,1,1.258,1.258V77.22A1.258,1.258,0,0,1,45.736,78.477ZM34.062,75.962H44.478V65.546H34.062Z"/><path fill="#FFFFFF"  d="M45.736,72.012H32.8a1.258,1.258,0,0,1,0-2.515H45.736a1.258,1.258,0,0,1,0,2.515Z"/><path fill="#FFFFFF"  d="M39.27,78.477a1.258,1.258,0,0,1-1.258-1.258V64.288a1.258,1.258,0,0,1,2.515,0V77.22A1.258,1.258,0,0,1,39.27,78.477Z"/></g></g></svg>