<svg width="100" height="100" preserveAspectRatio="xMidYMid meet"  xmlns="http://www.w3.org/2000/svg" viewBox="0 0 100 81.65"><title>Icon-Move-to-Absa-100x100</title><g id="Layer_2" data-name="Layer 2"><g id="Layer_2-2" data-name="Layer 2"><path fill="#FFFFFF"  d="M92.248,81.65H7.753A7.761,7.761,0,0,1,0,73.9V20.042a7.761,7.761,0,0,1,7.753-7.753h84.5A7.761,7.761,0,0,1,100,20.042V73.9A7.761,7.761,0,0,1,92.248,81.65ZM7.753,14.611a5.437,5.437,0,0,0-5.431,5.431V73.9a5.438,5.438,0,0,0,5.431,5.432h84.5A5.437,5.437,0,0,0,97.679,73.9V20.042a5.437,5.437,0,0,0-5.431-5.431Z"/><path fill="#FFFFFF"  d="M79.808,44.874l-.622-2.236a109.14,109.14,0,0,0,19.138-7.32l1.03,2.08A111.418,111.418,0,0,1,79.808,44.874Z"/><path fill="#FFFFFF"  d="M50,48.952a111.215,111.215,0,0,1-19.461-1.721l.407-2.285a109.05,109.05,0,0,0,37.539.1l.4,2.287A111.181,111.181,0,0,1,50,48.952Z"/><path fill="#FFFFFF"  d="M19.615,44.711A111.435,111.435,0,0,1,.645,37.4l1.03-2.08a109.146,109.146,0,0,0,18.573,7.161Z"/><path fill="#FFFFFF"  d="M26.581,55.677H24.1a5.331,5.331,0,0,1-5.324-5.325V43.587A5.33,5.33,0,0,1,24.1,38.262h2.484a5.331,5.331,0,0,1,5.325,5.324v6.766A5.331,5.331,0,0,1,26.581,55.677ZM24.1,40.583a3.007,3.007,0,0,0-3,3v6.766a3.007,3.007,0,0,0,3,3h2.484a3.007,3.007,0,0,0,3-3V43.587a3.007,3.007,0,0,0-3-3Z"/><path fill="#FFFFFF"  d="M75.334,55.677H72.85a5.331,5.331,0,0,1-5.325-5.325V43.587a5.331,5.331,0,0,1,5.325-5.324h2.484a5.33,5.33,0,0,1,5.324,5.324v6.766A5.33,5.33,0,0,1,75.334,55.677ZM72.85,40.583a3.007,3.007,0,0,0-3,3v6.766a3.007,3.007,0,0,0,3,3h2.484a3.007,3.007,0,0,0,3-3V43.587a3.006,3.006,0,0,0-3-3Z"/><path fill="#FFFFFF"  d="M30.905,13.688a6.119,6.119,0,0,1-.128-1.246V6.062A6.069,6.069,0,0,1,36.84,0H62.593a6.069,6.069,0,0,1,6.062,6.062v6.379H66.334V6.062a3.746,3.746,0,0,0-3.741-3.741H36.84A3.746,3.746,0,0,0,33.1,6.062v6.379a3.778,3.778,0,0,0,.079.772Z"/></g></g></svg>