<svg width="100" height="100" preserveAspectRatio="xMidYMid meet"  xmlns="http://www.w3.org/2000/svg" viewBox="0 0 100 100"><title>Icon-Information-Large-100x100</title><g id="Layer_2" data-name="Layer 2"><g id="Layer_2-2" data-name="Layer 2"><path fill="#FFFFFF"  d="M50,100a50,50,0,1,1,50-50A50.056,50.056,0,0,1,50,100ZM50,2.127A47.872,47.872,0,1,0,97.873,50,47.927,47.927,0,0,0,50,2.127Z" style="fill:#FFFFFF"/><path fill="#FFFFFF"  d="M48.139,37.909a1.128,1.128,0,0,1,1.149-1.149,1.161,1.161,0,0,1,1.187,1.149v.651a1.161,1.161,0,0,1-1.187,1.149,1.128,1.128,0,0,1-1.149-1.149Zm.23,7.506a.938.938,0,1,1,1.877,0V63.338a.9.9,0,0,1-.919.957.925.925,0,0,1-.958-.957Z" style="fill:#FFFFFF"/></g></g></svg>