<svg width="100" height="100" preserveAspectRatio="xMidYMid meet"  id="Layer_2" data-name="Layer 2" xmlns="http://www.w3.org/2000/svg" viewBox="0 0 100 74.821"><title>Icon_Laptop_100x100</title><path d="M140.129,116.868a1.22,1.22,0,0,1-1.22-1.22V68.121a3.1,3.1,0,0,0-3.092-3.092H65.247a3.1,3.1,0,0,0-3.092,3.092v47.528a1.22,1.22,0,1,1-2.439,0V68.121a5.538,5.538,0,0,1,5.531-5.531h70.571a5.538,5.538,0,0,1,5.531,5.531v47.528A1.22,1.22,0,0,1,140.129,116.868Z" transform="translate(-50 -62.59)" style="fill:#fff"/><circle cx="49.791" cy="8.038" r="1.319" style="fill:#fff"/><path d="M144.973,137.41H55.026A5.032,5.032,0,0,1,50,132.384v-2.326h2.467v2.326a2.561,2.561,0,0,0,2.559,2.558h89.947a2.561,2.561,0,0,0,2.559-2.558v-2.326H150v2.326A5.032,5.032,0,0,1,144.973,137.41Z" transform="translate(-50 -62.59)" style="fill:#fff"/><path d="M148.766,131.277H51.234a1.22,1.22,0,0,1-1.012-1.9l9.7-14.409a1.22,1.22,0,0,1,1.012-.538h79.194a1.22,1.22,0,0,1,1.046.593l8.637,14.409A1.22,1.22,0,0,1,148.766,131.277Zm-95.241-2.439h93.088l-7.175-11.97H61.584Z" transform="translate(-50 -62.59)" style="fill:#fff"/></svg>