<svg width="100" height="100" preserveAspectRatio="xMidYMid meet"  id="Layer_2" data-name="Layer 2" xmlns="http://www.w3.org/2000/svg" viewBox="0 0 100 95.024"><title>Icon_Wallet_100x100</title><path d="M52.887,130.9H50V81.06a10.116,10.116,0,0,1,10.1-10.1h75.009a10.116,10.116,0,0,1,10.1,10.1l0.013,14.222-2.887.009-0.013-14.23a7.226,7.226,0,0,0-7.218-7.219H60.1a7.226,7.226,0,0,0-7.218,7.218V130.9Z" transform="translate(-50 -52.112)" style="fill:#fff"/><path d="M135.114,147.136H60.1a10.116,10.116,0,0,1-10.1-10.1V130.9h2.887v6.135a7.226,7.226,0,0,0,7.218,7.218h75.009a7.226,7.226,0,0,0,7.218-7.218l0.134-15.17,2.887,0.025-0.134,15.157A10.113,10.113,0,0,1,135.114,147.136Z" transform="translate(-50 -52.112)" style="fill:#fff"/><path d="M142.058,123.044H110.014a7.951,7.951,0,0,1-7.942-7.942V102.3a7.951,7.951,0,0,1,7.942-7.942h32.044A7.951,7.951,0,0,1,150,102.3v12.8A7.951,7.951,0,0,1,142.058,123.044Zm-32.044-25.8a5.061,5.061,0,0,0-5.055,5.055v12.8a5.06,5.06,0,0,0,5.055,5.055h32.044a5.06,5.06,0,0,0,5.055-5.055V102.3a5.061,5.061,0,0,0-5.055-5.055H110.014Z" transform="translate(-50 -52.112)" style="fill:#fff"/><path d="M114.845,114.8a5.752,5.752,0,1,1,5.752-5.752A5.759,5.759,0,0,1,114.845,114.8Zm0-8.617a2.865,2.865,0,1,0,2.864,2.865A2.869,2.869,0,0,0,114.845,106.181Z" transform="translate(-50 -52.112)" style="fill:#fff"/><polygon points="15.618 21.646 14.65 18.926 67.823 0 74.872 19.803 72.152 20.771 66.071 3.688 15.618 21.646" style="fill:#fff"/><path d="M135.287,75.466" transform="translate(-50 -52.112)" style="fill:#fff;stroke:#231f20;stroke-miterlimit:10;stroke-width:2.8870382342224086px"/><polygon points="82.998 20.695 78.781 6.367 69.449 9.114 68.634 6.345 80.735 2.782 85.769 19.879 82.998 20.695" style="fill:#fff"/></svg>