<svg width="100" height="100" preserveAspectRatio="xMidYMid meet"  id="Layer_2" data-name="Layer 2" xmlns="http://www.w3.org/2000/svg" viewBox="0 0 93.557 100"><title>Icon_Comparison_100x100</title><path d="M118.937,150a1.2,1.2,0,0,1-.826-0.33l-64.516-61.3a1.2,1.2,0,0,1-.043-1.7L80.193,58.636a1.2,1.2,0,0,1,.839-0.373,1.182,1.182,0,0,1,.857.33l64.517,61.3a1.2,1.2,0,0,1,.043,1.7l-26.642,28.041A1.2,1.2,0,0,1,118.937,150ZM56.117,87.459l62.777,59.646,24.99-26.3L81.106,61.158Z" transform="translate(-53.222 -50)" style="fill:#fff"/><path d="M143.456,119.651L96.281,56.725,86,64.431l-1.438-1.919L95.8,54.087a1.2,1.2,0,0,1,1.679.24l47.894,63.886Z" transform="translate(-53.222 -50)" style="fill:#fff"/><path d="M144.265,120.829L113.223,52.789,99.267,59.155l-1-2.182,15.046-6.865a1.2,1.2,0,0,1,1.589.593l31.54,69.132Z" transform="translate(-53.222 -50)" style="fill:#fff"/><path d="M121,131.832a7.745,7.745,0,1,1,7.747-7.942h0a7.752,7.752,0,0,1-7.544,7.939Zm0.009-13.09-0.141,0a5.346,5.346,0,0,0-3.545,9.219,5.3,5.3,0,0,0,3.819,1.469,5.352,5.352,0,0,0,5.207-5.481h0A5.346,5.346,0,0,0,121.008,118.742Z" transform="translate(-53.222 -50)" style="fill:#fff"/><path d="M140.415,112.7L130.037,54.33l-14.024,2.493-0.419-2.362,15.205-2.7a1.2,1.2,0,0,1,1.39.971l10.587,59.556Z" transform="translate(-53.222 -50)" style="fill:#fff"/></svg>