<svg width="100" height="100" preserveAspectRatio="xMidYMid meet"  id="Layer_2" data-name="Layer 2" xmlns="http://www.w3.org/2000/svg" viewBox="0 0 100 98.194"><title>Icon_Rewards_100x100</title><rect x="13.554" y="34.944" width="2.451" height="35.973" style="fill:#fff"/><rect x="26.09" y="88.465" width="33.831" height="2.451" style="fill:#fff"/><rect x="72.626" y="34.944" width="2.451" height="21.142" style="fill:#fff"/><path d="M130.976,87.348H57.385V71.278h73.591v16.07ZM59.836,84.9h68.688V73.729H59.836V84.9Z" transform="translate(-50 -51.181)" style="fill:#fff"/><path d="M104.757,72.558l-0.263-2.437c2.5-.27,4.337-0.476,4.8-0.532,0.08-.01.24-0.029,0.448-0.074a4.863,4.863,0,0,0,.524-0.142,8.576,8.576,0,0,0,2.039-1.272,8.119,8.119,0,0,0-10.524-12.367,9.92,9.92,0,0,0-1.587,1.82,12.317,12.317,0,0,0-1.541,5.064l-2.444-.194a14.8,14.8,0,0,1,1.872-6.113l0.038-.063a12.344,12.344,0,0,1,2.074-2.38,10.571,10.571,0,1,1,13.7,16.1,10.894,10.894,0,0,1-2.747,1.693l-0.058.021a7.354,7.354,0,0,1-.837.229c-0.308.066-.546,0.1-0.662,0.11C109.123,72.079,107.273,72.286,104.757,72.558Z" transform="translate(-50 -51.181)" style="fill:#fff"/><polygon points="44.05 21.794 45.47 14.96 46.605 8.865 49.015 9.313 47.875 15.434 47.091 19.206 56.181 18.808 56.287 21.257 44.05 21.794" style="fill:#fff"/><path d="M85.13,72.387c-2.516-.272-4.367-0.478-4.835-0.536-0.117-.015-0.354-0.044-0.662-0.11a7.484,7.484,0,0,1-.835-0.229l-0.059-.022A10.889,10.889,0,0,1,75.992,69.8a10.571,10.571,0,0,1,13.7-16.1,12.358,12.358,0,0,1,2.074,2.38L91.8,56.139a14.794,14.794,0,0,1,1.872,6.115l-2.444.193a12.318,12.318,0,0,0-1.541-5.063,9.893,9.893,0,0,0-1.587-1.82A8.12,8.12,0,1,0,77.581,67.931,8.584,8.584,0,0,0,79.619,69.2a4.948,4.948,0,0,0,.523.141c0.211,0.045.374,0.065,0.452,0.075,0.463,0.056,2.3.262,4.8,0.532Z" transform="translate(-50 -51.181)" style="fill:#fff"/><polygon points="45.836 21.623 33.599 21.086 33.706 18.637 42.795 19.035 42.017 15.288 40.872 9.143 43.281 8.694 44.422 14.814 45.836 21.623" style="fill:#fff"/><path d="M103.427,142.1H85.043V84.9h18.384v57.2Zm-15.933-2.451h13.482v-52.3H87.494v52.3Z" transform="translate(-50 -51.181)" style="fill:#fff"/><polygon points="96.473 98.194 58.697 98.194 58.697 64.23 61.148 64.23 61.148 95.742 94.022 95.742 94.022 64.23 96.473 64.23 96.473 98.194" style="fill:#fff"/><path d="M150,116.635H105.009V106.04H150v10.595Zm-42.54-2.451h40.089v-5.693H107.46v5.693Z" transform="translate(-50 -51.181)" style="fill:#fff"/><polygon points="27.311 98.194 2.35 98.194 2.35 76.107 4.802 76.107 4.802 95.742 24.86 95.742 24.86 76.107 27.311 76.107 27.311 98.194" style="fill:#fff"/><path d="M79.558,128.512H50v-7.64H79.558v7.64Zm-27.107-2.451H77.107v-2.738H52.451v2.738Z" transform="translate(-50 -51.181)" style="fill:#fff"/><rect x="9.57" y="76.107" width="2.451" height="20.861" style="fill:#fff"/><path d="M60.8,148.149" transform="translate(-50 -51.181)" style="fill:#fff;stroke:#3e3639;stroke-miterlimit:10;stroke-width:2.7172820940314817px"/><rect x="16.892" y="76.107" width="2.451" height="20.861" style="fill:#fff"/><rect x="71.164" y="64.843" width="2.984" height="30.9" style="fill:#fff"/><path d="M127.586,108.491a1.225,1.225,0,0,1-.668-2.254l11.679-7.57a1.226,1.226,0,1,1,1.333,2.057l-11.679,7.57A1.219,1.219,0,0,1,127.586,108.491Z" transform="translate(-50 -51.181)" style="fill:#fff"/><path d="M128.067,108.491a1.219,1.219,0,0,1-.665-0.2l-11.68-7.57a1.226,1.226,0,1,1,1.333-2.057l11.68,7.57A1.225,1.225,0,0,1,128.067,108.491Z" transform="translate(-50 -51.181)" style="fill:#fff"/><rect x="79.613" y="65.149" width="2.984" height="30.9" style="fill:#fff"/></svg>