<svg width="100" height="100" preserveAspectRatio="xMidYMid meet"  id="Layer_2" data-name="Layer 2" xmlns="http://www.w3.org/2000/svg" viewBox="0 0 90.669 100"><title>Icon_Bank-Account_100x100</title><path d="M142.505,92.188H127.7a1.308,1.308,0,1,1,0-2.617h14.427L101.379,52.919a2.138,2.138,0,0,0-2.758,0L57.874,89.571H70.688a1.308,1.308,0,1,1,0,2.617H57.495c-1.871,0-2.495-.9-2.7-1.435s-0.343-1.622,1.048-2.873L96.871,50.973a4.788,4.788,0,0,1,6.258,0L144.158,87.88c1.391,1.251,1.253,2.337,1.048,2.873S144.376,92.188,142.505,92.188Z" transform="translate(-54.665 -49.809)" style="fill:#fff"/><path d="M79.727,142.674H63.915a4.07,4.07,0,0,1-4.066-4.066V96.977a1.308,1.308,0,1,1,2.617,0v41.632a1.45,1.45,0,0,0,1.449,1.449H79.727A1.308,1.308,0,0,1,79.727,142.674Z" transform="translate(-54.665 -49.809)" style="fill:#fff"/><path d="M135.036,142.674H118.5a1.308,1.308,0,1,1,0-2.617h16.536a1.4,1.4,0,0,0,1.4-1.4V96.977a1.308,1.308,0,0,1,2.617,0v41.684A4.018,4.018,0,0,1,135.036,142.674Z" transform="translate(-54.665 -49.809)" style="fill:#fff"/><path d="M137.741,149.809H61.157a1.308,1.308,0,0,1,0-2.617h76.584A1.308,1.308,0,0,1,137.741,149.809Z" transform="translate(-54.665 -49.809)" style="fill:#fff"/><path d="M99.806,143.982c-12.994,0-22.874-8.2-23.5-19.506-0.4-7.265,4.859-17.3,15.209-29.014A1.308,1.308,0,0,1,93.48,97.2c-9.885,11.19-14.919,20.573-14.557,27.137,0.543,9.87,9.326,17.033,20.883,17.033h0c11.43,0,20.216-7.172,20.889-17.05,0.462-6.782-4.6-16.386-14.627-27.776a1.308,1.308,0,1,1,1.964-1.729c10.652,12.1,15.791,22.083,15.273,29.683-0.769,11.291-10.652,19.487-23.5,19.489h0Z" transform="translate(-54.665 -49.809)" style="fill:#fff"/><path d="M106.254,92.785h-12.2a4.9,4.9,0,0,1-3.159-1.309l-8.405-8.407a2.28,2.28,0,0,1,.451-3.645c0.205-.123,5.077-3.006,9-2.2a10.4,10.4,0,0,1,4.906,2.687c1.111,0.951,1.914,1.638,3.25,1.674,1.508,0.034,2.526-.8,3.814-1.869a10.436,10.436,0,0,1,5.6-2.836c3.762-.472,7.833,2.394,8,2.516a2.381,2.381,0,0,1,.306,3.675l-8.406,8.408A4.9,4.9,0,0,1,106.254,92.785Zm-21.649-11.3,8.139,8.141a2.4,2.4,0,0,0,1.308.542h12.2a2.4,2.4,0,0,0,1.308-.541L115.8,81.39c-1.1-.731-3.829-2.18-5.962-1.916a8.083,8.083,0,0,0-4.252,2.255c-1.436,1.19-3.06,2.55-5.555,2.47a7.484,7.484,0,0,1-4.88-2.3,7.883,7.883,0,0,0-3.728-2.112C89.185,79.329,86.005,80.72,84.606,81.486Zm-0.267-.268-0.924.926,0.925-.925h0Z" transform="translate(-54.665 -49.809)" style="fill:#fff"/><path d="M104.657,97.631h-9.49a3.731,3.731,0,1,1,0-7.463h9.49A3.731,3.731,0,0,1,104.657,97.631Zm-9.49-4.846a1.114,1.114,0,1,0,0,2.229h9.49a1.114,1.114,0,0,0,0-2.229h-9.49Z" transform="translate(-54.665 -49.809)" style="fill:#fff"/><path d="M93.481,111.039A1.039,1.039,0,0,1,94.5,110h6.818a7.182,7.182,0,0,1,5.179,1.822,5.031,5.031,0,0,1,1.405,3.591v0.052c0,2.993-2.03,4.736-4.867,5.283l4.528,5.829a1.117,1.117,0,0,1,.338.755,1.075,1.075,0,0,1-1.041,1.015,1.2,1.2,0,0,1-.963-0.547l-5.127-6.662H95.537V127.3a1.028,1.028,0,1,1-2.056,0V111.039Zm7.651,8.249c2.732,0,4.684-1.405,4.684-3.747v-0.052c0-2.238-1.718-3.591-4.658-3.591H95.537v7.391h5.6Z" transform="translate(-54.665 -49.809)" style="fill:#fff"/></svg>