<svg width="100" height="100" preserveAspectRatio="xMidYMid meet"  id="Layer_2" data-name="Layer 2" xmlns="http://www.w3.org/2000/svg" viewBox="0 0 100 100"><title>Icon_WhyPrivateBanking_100x100</title><path d="M106.192,133.208H93.72V86.656l12.473-3.035v49.587Zm-9.928-2.545h7.383v-43.8l-7.383,1.8v42.007Zm3.779-49.2a7.2,7.2,0,0,1-7.378-7.379,7.032,7.032,0,0,1,2.119-5.238,7.267,7.267,0,0,1,5.259-2.052,7.06,7.06,0,0,1,7.291,7.291,7.221,7.221,0,0,1-2.08,5.265A7.053,7.053,0,0,1,100.044,81.461Zm0-12.124a4.744,4.744,0,0,0-3.483,1.33,4.519,4.519,0,0,0-1.35,3.416,4.662,4.662,0,0,0,4.833,4.834,4.536,4.536,0,0,0,3.4-1.357,4.7,4.7,0,0,0,1.346-3.477A4.522,4.522,0,0,0,100.044,69.337Z" transform="translate(-50 -50)" style="fill:#fff"/><path d="M100,150a50,50,0,1,1,50-50A50.057,50.057,0,0,1,100,150Zm0-97.455A47.455,47.455,0,1,0,147.455,100,47.509,47.509,0,0,0,100,52.545Z" transform="translate(-50 -50)" style="fill:#fff"/></svg>