<svg width="100" height="100" preserveAspectRatio="xMidYMid meet"  id="Layer_2" data-name="Layer 2" xmlns="http://www.w3.org/2000/svg" viewBox="0 0 100 71.825"><title>Icon_Raining_100x100</title><rect x="60.568" y="127.75" width="15.285" height="2.578" transform="translate(-123.578 28.588) rotate(-47.566)" style="fill:#fff"/><rect x="125.803" y="127.75" width="15.285" height="2.578" transform="translate(-102.36 76.735) rotate(-47.566)" style="fill:#fff"/><rect x="110.14" y="127.75" width="15.285" height="2.578" transform="translate(-107.454 65.175) rotate(-47.566)" style="fill:#fff"/><rect x="94.277" y="127.75" width="15.285" height="2.578" transform="translate(-112.614 53.468) rotate(-47.566)" style="fill:#fff"/><rect x="77.495" y="127.75" width="15.285" height="2.578" transform="translate(-118.072 41.082) rotate(-47.566)" style="fill:#fff"/><path d="M76.294,118.636A27.193,27.193,0,0,1,50.526,91.194c0-15.146,12.1-27.469,26.98-27.469a27.131,27.131,0,0,1,24.691,16.4,20.042,20.042,0,0,1,27.252,13.2,13.738,13.738,0,0,1,20.517,15.5l-2.473-.73A11.15,11.15,0,0,0,129.455,96.53L127.7,98.064l-0.367-2.3A17.454,17.454,0,0,0,102.1,83.016l-1.29.666-0.509-1.36a24.56,24.56,0,0,0-22.8-16.02c-13.455,0-24.4,11.166-24.4,24.891A24.62,24.62,0,0,0,76.41,116.06Z" transform="translate(-50.526 -63.725)" style="fill:#fff"/><path d="M137.326,118.643l-61.172-.014v-2.578l61.159,0.014a10.69,10.69,0,0,0,10.519-9.612l2.566,0.261A13.269,13.269,0,0,1,137.326,118.643Z" transform="translate(-50.526 -63.725)" style="fill:#fff"/></svg>