<svg width="100" height="100" preserveAspectRatio="xMidYMid meet"  xmlns="http://www.w3.org/2000/svg" viewBox="0 0 83.944 100.5"><title>Icon-Contact-Us-100x100</title><g id="Layer_2" data-name="Layer 2"><g id="Layer_2-2" data-name="Layer 2"><path fill="#FFFFFF"  d="M49.878,57.74c-5.032,0-11.763-3.833-16.368-9.32-4.794-5.715-7.34-13.178-6.191-18.15.213-.921,1.813-2.475,4.756-4.619a2.688,2.688,0,0,1,1.69-.6,2.607,2.607,0,0,1,2,.925l.12.143,2.888,7.656a3.358,3.358,0,0,1-.816,3.776c-.6.5-1.485,1.242-1.926,1.613a7.922,7.922,0,0,0,1.729,3.648c1.948,2.728,4.327,4.609,5.5,4.81l1.865-1.567a3.345,3.345,0,0,1,3.737-.219l7.032,4.128.121.144a2.641,2.641,0,0,1-.287,3.685c-2.616,2.566-4.425,3.89-5.375,3.935C50.2,57.737,50.039,57.74,49.878,57.74ZM29.433,30.82c-.954,4.282,1.456,11.08,5.75,16.2,4.251,5.065,10.6,8.7,15,8.534a22.367,22.367,0,0,0,4.037-3.341l.063-.057a.456.456,0,0,0,.126-.526l-6.625-3.889a1.2,1.2,0,0,0-1.26-.01L44.1,49.769l-.328.037a2.824,2.824,0,0,1-.319.018c-2.314,0-5.493-2.976-7.468-5.742-1.229-1.721-2.571-4.134-1.981-5.856.119-.316.119-.316,2.552-2.349a1.2,1.2,0,0,0,.216-1.232l-.029-.069L34,27.3a.445.445,0,0,0-.231-.063.5.5,0,0,0-.32.118l-.059.046A22.463,22.463,0,0,0,29.433,30.82ZM50.247,55.549h0Z" style="stroke:#FFFFFF;stroke-miterlimit:10;stroke-width:0.5px"/><path fill="#FFFFFF"  d="M41.688,70.457A29.231,29.231,0,1,1,70.919,41.226,29.264,29.264,0,0,1,41.688,70.457Zm0-56.278A27.048,27.048,0,1,0,68.736,41.226,27.078,27.078,0,0,0,41.688,14.178Z" style="stroke:#FFFFFF;stroke-miterlimit:10;stroke-width:0.5px"/><path fill="#FFFFFF"  d="M42.553,100.25a4.305,4.305,0,0,1-3.133-1.884l-14-18.093C8.483,72.432.25,59.9.25,41.972a41.722,41.722,0,0,1,83.444,0c0,18.635-7.525,30.1-25.152,38.292L45.463,98.329a3.482,3.482,0,0,1-2.847,1.92Zm-.58-97.817A39.584,39.584,0,0,0,2.433,41.972c0,17.072,7.9,28.988,24.141,36.428l.244.112L41.2,97.1c.216.306.876.964,1.372.968.429-.012.85-.586,1.063-.927l.042-.062L57.109,78.521l.26-.119c16.922-7.789,24.142-18.683,24.142-36.429A39.584,39.584,0,0,0,41.972,2.433Z" style="stroke:#FFFFFF;stroke-miterlimit:10;stroke-width:0.5px"/></g></g></svg>