<svg width="100" height="100" preserveAspectRatio="xMidYMid meet"  id="Layer_2" data-name="Layer 2" xmlns="http://www.w3.org/2000/svg" viewBox="0 0 99.808 100"><title>Icon_Protect_100x100</title><path d="M99.826,150l-0.465-.3c-6.767-2.7-40.936-19.639-49.013-88.352L50.1,59.21,52.1,60a44.723,44.723,0,0,0,23.419,2.556A45.286,45.286,0,0,0,99.131,50.862L100.042,50l0.887,0.887c6.638,6.638,19.05,10.762,32.392,10.762a61.081,61.081,0,0,0,14.772-1.7l1.811-.453-0.218,1.854c-2.5,21.308-9.333,51.115-27.636,72.105-11.089,12.718-21.2,16.2-21.624,16.346ZM53.164,63.135c8.225,64.635,39.829,81.154,46.879,84.059,2.019-.782,10.576-4.556,20.063-15.435,17.357-19.906,24.164-48.093,26.8-68.889a65.161,65.161,0,0,1-13.582,1.359c-13.643,0-25.975-3.967-33.32-10.663A47.866,47.866,0,0,1,75.929,65.1,47.217,47.217,0,0,1,53.164,63.135Z" transform="translate(-50.096 -50)" style="fill:#fff"/><rect x="48.631" y="1.799" width="2.579" height="96.778" style="fill:#fff"/></svg>