<svg width="100" height="100" preserveAspectRatio="xMidYMid meet"  id="Layer_2" data-name="Layer 2" xmlns="http://www.w3.org/2000/svg" viewBox="0 0 100 97.997"><title>Icon_Competition_100x100</title><rect x="44.521" y="10.806" width="2.984" height="25.092" style="fill:#fff"/><path d="M149.766,137.909l-2.936-.532,0.142-.787c0.011-.614.02-1.951,0.02-3.091V93.749h2.984V133.5c0,1.243-.01,2.714-0.022,3.27L149.93,137Z" transform="translate(-50 -51.001)" style="fill:#fff"/><rect x="96.992" y="9.739" width="2.984" height="33.009" style="fill:#fff"/><path d="M122.26,72.052c-13.448,0-27.74-3.689-27.74-10.525S108.813,51,122.26,51,150,54.69,150,61.527,135.708,72.052,122.26,72.052Zm0-18.067c-15.338,0-24.756,4.393-24.756,7.542s9.418,7.542,24.756,7.542,24.756-4.393,24.756-7.542S137.6,53.985,122.26,53.985Z" transform="translate(-50 -51.001)" style="fill:#fff"/><path d="M123.458,146.565q-0.688,0-1.381-.012c-8.1-.142-15.7-1.528-20.851-3.8l1.206-2.729c4.8,2.12,11.977,3.414,19.7,3.548a57.6,57.6,0,0,0,18.117-2.249c4.145-1.346,6.738-3.209,6.767-4.86L150,136.513c-0.055,3.143-3.108,5.788-8.829,7.645A59.334,59.334,0,0,1,123.458,146.565Z" transform="translate(-50 -51.001)" style="fill:#fff"/><path d="M124.044,134.05c-0.438,0-.876,0-1.317-0.012-7.9-.138-15.318-1.52-20.345-3.794l1.229-2.719c4.671,2.112,11.658,3.4,19.169,3.529a54.771,54.771,0,0,0,17.645-2.253c4.035-1.345,6.559-3.21,6.587-4.867L150,123.987c-0.055,3.137-3.038,5.782-8.627,7.645A56.655,56.655,0,0,1,124.044,134.05Z" transform="translate(-50 -51.001)" style="fill:#fff"/><path d="M124,119.18c-0.413,0-.823,0-1.235-0.01-7.935-.138-15.365-1.525-20.384-3.8l1.233-2.717c4.662,2.117,11.661,3.406,19.2,3.537,14.9,0.272,24.122-3.932,24.176-7.052l2.984,0.052C149.861,115.764,136.73,119.18,124,119.18Z" transform="translate(-50 -51.001)" style="fill:#fff"/><path d="M96.017,93.51" transform="translate(-50 -51.001)" style="fill:#fff;stroke:#231e20;stroke-miterlimit:10;stroke-width:2.983747419324717px"/><path d="M123.462,104.5q-0.689,0-1.385-.012a60.009,60.009,0,0,1-19.331-3.183l1.05-2.793c4.736,1.782,11.419,2.872,18.333,2.992a57.7,57.7,0,0,0,18.117-2.248c4.145-1.346,6.738-3.209,6.767-4.86L150,94.453c-0.055,3.143-3.108,5.788-8.829,7.645A59.313,59.313,0,0,1,123.462,104.5Z" transform="translate(-50 -51.001)" style="fill:#fff"/><path d="M123.458,88.4q-0.687,0-1.381-.012c-13.445-.235-27.671-4.173-27.551-11.008l2.983,0.052c-0.055,3.149,9.285,7.705,24.621,7.973a57.9,57.9,0,0,0,18.117-2.249c4.145-1.346,6.738-3.208,6.767-4.86L150,78.346c-0.055,3.144-3.108,5.788-8.829,7.645A59.334,59.334,0,0,1,123.458,88.4Z" transform="translate(-50 -51.001)" style="fill:#fff"/><rect x="52.356" y="72.641" width="2.984" height="15.47" style="fill:#fff"/><rect x="0.011" y="41.273" width="2.984" height="46.506" style="fill:#fff"/><rect x="52.356" y="42.414" width="2.984" height="31.474" style="fill:#fff"/><path d="M77.751,102.8c-13.448,0-27.74-3.689-27.74-10.525S64.3,81.748,77.751,81.748s27.74,3.689,27.74,10.526S91.2,102.8,77.751,102.8Zm0-18.067C62.413,84.732,53,89.125,53,92.274s9.418,7.542,24.756,7.542,24.756-4.393,24.756-7.542S93.089,84.732,77.751,84.732Z" transform="translate(-50 -51.001)" style="fill:#fff"/><path d="M78.787,149q-0.649,0-1.293-.011a60.955,60.955,0,0,1-18.951-3.038c-5.643-2.043-8.6-4.774-8.542-7.9l2.983,0.052c-0.028,1.632,2.491,3.564,6.575,5.042A57.926,57.926,0,0,0,77.546,146c15.3,0.27,24.769-3.921,24.823-7.041l2.983,0.052C105.237,145.588,91.814,149,78.787,149Z" transform="translate(-50 -51.001)" style="fill:#fff"/><path d="M78.777,135.259c-0.429,0-.856,0-1.284-0.011a60.487,60.487,0,0,1-18.946-3.059c-5.638-2.057-8.589-4.806-8.534-7.949L53,124.293c-0.029,1.652,2.49,3.6,6.574,5.093a57.452,57.452,0,0,0,17.975,2.878c15.3,0.266,24.757-3.961,24.812-7.11l2.983,0.052C105.224,131.824,91.8,135.259,78.777,135.259Z" transform="translate(-50 -51.001)" style="fill:#fff"/><path d="M78.869,119.623q-0.686,0-1.377-.012a60.485,60.485,0,0,1-18.945-3.059c-5.638-2.056-8.589-4.8-8.534-7.948L53,108.657c-0.029,1.651,2.49,3.6,6.574,5.093a57.429,57.429,0,0,0,17.975,2.878,57.206,57.206,0,0,0,18.065-2.249c4.133-1.346,6.719-3.209,6.748-4.861l2.983,0.052c-0.055,3.143-3.1,5.787-8.807,7.645A59.014,59.014,0,0,1,78.869,119.623Z" transform="translate(-50 -51.001)" style="fill:#fff"/></svg>