<svg width="100" height="100" preserveAspectRatio="xMidYMid meet"  xmlns="http://www.w3.org/2000/svg" viewBox="0 0 100 97.788"><title>Icon-Home-100x100</title><g id="Layer_2" data-name="Layer 2"><g id="Layer_2-2" data-name="Layer 2"><path fill="#FFFFFF"  d="M97.147,97.788a2.854,2.854,0,0,1-2.437-1.369,2.851,2.851,0,0,1-4.467.519v.85H9.757v-.85a2.851,2.851,0,0,1-4.467-.519A2.853,2.853,0,0,1,0,94.937V80.3a2.853,2.853,0,0,1,5.29-1.482A2.851,2.851,0,0,1,9.757,78.3V50.744A7.718,7.718,0,0,1,3.581,37.076l41.3-32.317L50,0l5.219,4.852,41.2,32.224a7.722,7.722,0,0,1,.906,11.339,7.663,7.663,0,0,1-5.662,2.48,7.323,7.323,0,0,1-1.418-.139V78.3a2.851,2.851,0,0,1,4.467.519A2.853,2.853,0,0,1,100,80.3V94.937A2.855,2.855,0,0,1,97.147,97.788Zm-4.471-5.7h4.068v2.845a.407.407,0,0,0,.4.4.4.4,0,0,0,.4-.4V80.3a.4.4,0,0,0-.805,0v2.853H92.676V80.3a.4.4,0,0,0-.805,0v2.853H87.793V47.187l1.728.778a5.177,5.177,0,0,0,6.008-1.217,5.273,5.273,0,0,0-.62-7.742L53.588,6.682,50,3.347l-3.564,3.31L5.091,39.006a5.263,5.263,0,0,0-.613,7.741,5.238,5.238,0,0,0,6,1.218l1.727-.776V83.158H8.129V80.3a.4.4,0,0,0-.805,0v2.853H3.256V80.3a.4.4,0,0,0-.805,0V94.937a.4.4,0,0,0,.4.4.407.407,0,0,0,.4-.4V92.092H7.324v2.845a.4.4,0,0,0,.805,0V92.092h4.078v3.246H87.793V92.092h4.078v2.845a.4.4,0,0,0,.4.4.407.407,0,0,0,.4-.4Z"/><rect fill="#FFFFFF"  x="3.256" y="83.955" width="4.068" height="7.332"/><rect fill="#FFFFFF"  x="8.129" y="83.955" width="4.078" height="7.332"/><rect fill="#FFFFFF"  x="87.793" y="83.955" width="4.078" height="7.332"/><rect fill="#FFFFFF"  x="92.676" y="83.955" width="4.068" height="7.332"/><path fill="#FFFFFF"  d="M93.9,90.062" style="fill:none;stroke:#FFFFFF;stroke-miterlimit:10;stroke-width:2.4504569180837863px"/><path fill="#FFFFFF"  d="M46.058,87.378h-23a2.453,2.453,0,0,1-2.45-2.45V65.953a2.453,2.453,0,0,1,2.45-2.45h23a2.453,2.453,0,0,1,2.45,2.45V84.928A2.453,2.453,0,0,1,46.058,87.378Zm0-2.45v0Zm-23-18.974V84.928h23l0-18.974Z"/><path fill="#FFFFFF"  d="M46.058,61.695h-23a2.453,2.453,0,0,1-2.45-2.45V46.539a2.453,2.453,0,0,1,2.45-2.45h23a2.453,2.453,0,0,1,2.45,2.45V59.244A2.453,2.453,0,0,1,46.058,61.695Zm0-2.45v0Zm-23-12.705V59.244h23l0-12.705Z"/><polygon fill="#FFFFFF"  points="88.283 50.062 50 21.331 11.718 50.062 10.247 48.102 50 18.267 89.753 48.102 88.283 50.062"/><path fill="#FFFFFF"  d="M75.54,97.788H57.787a2.453,2.453,0,0,1-2.45-2.45V66.243a2.453,2.453,0,0,1,2.45-2.45H75.54a2.453,2.453,0,0,1,2.45,2.45V95.338A2.453,2.453,0,0,1,75.54,97.788Zm0-2.45v0ZM57.787,66.243V95.338H75.536l0-29.095Z"/><path fill="#FFFFFF"  d="M71.713,82.883A2.885,2.885,0,1,1,74.6,80,2.888,2.888,0,0,1,71.713,82.883Zm0-3.319a.434.434,0,1,0,.434.434A.435.435,0,0,0,71.713,79.564Z"/><rect fill="#FFFFFF"  x="33.248" y="65.018" width="2.45" height="21.135"/><rect fill="#FFFFFF"  x="21.83" y="74.215" width="25.454" height="2.45"/><rect fill="#FFFFFF"  x="21.714" y="48.774" width="25.57" height="2.45"/><rect fill="#FFFFFF"  x="21.714" y="53.98" width="25.57" height="2.45"/><path fill="#FFFFFF"  d="M34.473,61.615a1.225,1.225,0,0,1-1.225-1.225V45.734a1.225,1.225,0,1,1,2.45,0V60.389A1.225,1.225,0,0,1,34.473,61.615Z" style="fill:#FFFFFF"/><path fill="#FFFFFF"  d="M75.54,59.274H57.549a2.453,2.453,0,0,1-2.45-2.45V46.539a2.453,2.453,0,0,1,2.45-2.45H75.54a2.453,2.453,0,0,1,2.45,2.45V56.824A2.453,2.453,0,0,1,75.54,59.274Zm0-2.45v0ZM57.549,46.539V56.824H75.536l0-10.285Z"/><rect fill="#FFFFFF"  x="56.23" y="51.666" width="20.535" height="2.45"/></g></g></svg>