<?xml version="1.0" encoding="utf-8"?>
<!-- Generator: Adobe Illustrator 20.0.0, SVG Export Plug-In . SVG Version: 6.00 Build 0)  -->
<svg version="1.1" id="Layer_1" xmlns="http://www.w3.org/2000/svg" xmlns:xlink="http://www.w3.org/1999/xlink" x="0px" y="0px"
	 viewBox="0 0 100 100" style="enable-background:new 0 0 100 100;" xml:space="preserve">
<style type="text/css">
	.st0{fill:#FFFFFF;}
	.st1{fill:none;}
</style>
<title>Icon-Savings-100x100-White_1</title>
<g id="Layer_2">
	<g id="Layer_2-2">
		<path class="st0" d="M72.3,100H27.7c-7,0-12.7-5.7-12.7-12.7V27.1c0-7,5.7-12.7,12.7-12.7c0.7,0,1.2,0.5,1.2,1.2
			c0,0.7-0.5,1.2-1.2,1.2l0,0c-5.7,0-10.3,4.6-10.3,10.3v60.2c0,5.7,4.6,10.3,10.3,10.3h44.6c5.7,0,10.3-4.6,10.3-10.3V27.1
			c0-5.7-4.6-10.3-10.3-10.3c-0.7,0-1.2-0.5-1.2-1.2s0.5-1.2,1.2-1.2c7,0,12.7,5.7,12.7,12.7v60.2C85.1,94.3,79.4,100,72.3,100z"/>
		<path class="st0" d="M51.2,76c-9.1,0-18.7-2.6-18.7-7.5h2.2c0,2.2,6.3,5.3,16.6,5.3s16.6-3.1,16.6-5.3c0-1.2-1.9-2.6-5-3.7
			l0.7-2.1c4.2,1.4,6.5,3.4,6.5,5.7C69.9,73.4,60.3,76,51.2,76z"/>
		<path class="st0" d="M66.5,71.7"/>
		<path class="st0" d="M68.9,74.9"/>
		<path class="st0" d="M51.2,82.3c-9.1,0-18.7-2.6-18.7-7.5h2.2c0,2.2,6.3,5.3,16.5,5.3c9.6,0,16.4-2.8,16.5-5.2l2.2,0.1
			C69.6,79.8,60,82.3,51.2,82.3z"/>
		
			<rect x="65.5" y="70.8" transform="matrix(1.129210e-02 -0.9999 0.9999 1.129210e-02 -3.8155 139.8488)" class="st0" width="6.7" height="2.2"/>
		
			<rect x="30.5" y="70.9" transform="matrix(6.981287e-03 -1 1 6.981287e-03 -38.6397 105.0113)" class="st0" width="6.2" height="2.2"/>
		<path class="st0" d="M66.4,78.1"/>
		<path class="st0" d="M68.8,81.3"/>
		<path class="st0" d="M51.1,88.7c-9.1,0-18.7-2.6-18.7-7.4h2.2c0,2.2,6.3,5.3,16.5,5.3c9.6,0,16.4-2.7,16.5-5.2l2.2,0.1
			C69.5,86.1,60,88.7,51.1,88.7z"/>
		
			<rect x="65.4" y="77.1" transform="matrix(1.129210e-02 -0.9999 0.9999 1.129210e-02 -10.266 146.072)" class="st0" width="6.7" height="2.2"/>
		
			<rect x="30.4" y="77.2" transform="matrix(6.981287e-03 -1 1 6.981287e-03 -45.0341 111.319)" class="st0" width="6.2" height="2.2"/>
		<path class="st0" d="M59.4,61.4"/>
		<path class="st0" d="M45.5,64.9c-9.1,0-18.7-2.6-18.7-7.5c0-3.1,4.1-5.6,10.9-6.8l0.4,2.1c-6,1-9.1,3.1-9.1,4.7
			c0,2.2,6.3,5.3,16.6,5.3c4.4,0.1,8.8-0.6,12.9-2.1l0.8,2C54.8,64.3,50.1,65,45.5,64.9z"/>
		<path class="st0" d="M60.8,60.7"/>
		<path class="st0" d="M63.1,63.8"/>
		<path class="st0" d="M45.4,71.3c-9.1,0-18.7-2.6-18.7-7.5h2.2c0,2.2,6.3,5.3,16.5,5.3c9.6,0,16.4-2.8,16.5-5.2l2.2,0.1
			C63.9,68.7,54.3,71.3,45.4,71.3z"/>
		
			<rect x="61.4" y="61.4" transform="matrix(1.129210e-02 -0.9999 0.9999 1.129210e-02 -0.1278 124.8249)" class="st0" width="3.3" height="2.2"/>
		
			<rect x="24.7" y="59.8" transform="matrix(6.981287e-03 -1 1 6.981287e-03 -33.2899 88.3081)" class="st0" width="6.2" height="2.2"/>
		<path class="st0" d="M55.5,56.5c-9.1,0-18.7-2.6-18.7-7.5s9.7-7.5,18.7-7.5s18.7,2.6,18.7,7.5S64.6,56.5,55.5,56.5z M55.5,43.8
			c-10.3,0-16.6,3.1-16.6,5.3s6.3,5.3,16.6,5.3s16.6-3.1,16.6-5.3S65.8,43.8,55.5,43.8z"/>
		<path class="st0" d="M70.8,52.2"/>
		<path class="st0" d="M73.2,55.4"/>
		<path class="st0" d="M55.5,62.9c-9.1,0-18.7-2.6-18.7-7.5h2.2c0,2.2,6.3,5.3,16.5,5.3c9.6,0,16.4-2.8,16.5-5.2l2.2,0.1
			C73.9,60.3,64.4,62.9,55.5,62.9z"/>
		
			<rect x="69.8" y="51.3" transform="matrix(1.129210e-02 -0.9999 0.9999 1.129210e-02 19.9151 124.8936)" class="st0" width="6.7" height="2.2"/>
		
			<rect x="34.8" y="51.4" transform="matrix(6.981287e-03 -1 1 6.981287e-03 -14.8908 89.9728)" class="st0" width="6.2" height="2.2"/>
		<path class="st0" d="M75.6,16.7H23.9c-1.2,0-2.3-1-2.3-2.3v-3c0-1.2,1-2.3,2.3-2.3h51.7c1.2,0,2.3,1,2.3,2.3v3
			C77.8,15.7,76.8,16.7,75.6,16.7z M24,14.3h51.4v-2.7H24V14.3z"/>
		<path class="st0" d="M80.5,11.6H19.3c-2.4,0-4.4-2-4.4-4.4V4.4c0-2.4,2-4.4,4.4-4.4h61.1c2.4,0,4.4,2,4.4,4.4v2.8
			C84.8,9.6,82.9,11.6,80.5,11.6z M19.3,2.4c-1.1,0-2,0.9-2,2v2.8c0,1.1,0.9,2,2,2h61.1c1.1,0,2-0.9,2-2V4.4c0-1.1-0.9-2-2-2
			L19.3,2.4z"/>
		<path class="st0" d="M24.4,11.6c-0.7,0-1.2-0.5-1.2-1.2l0,0V1.2c0-0.7,0.5-1.2,1.2-1.2c0.7,0,1.2,0.5,1.2,1.2v9.2
			C25.6,11.1,25.1,11.6,24.4,11.6C24.4,11.6,24.4,11.6,24.4,11.6z"/>
		<path class="st0" d="M28.5,11.6c-0.7,0-1.2-0.5-1.2-1.2V1.2c0-0.7,0.6-1.2,1.2-1.2c0.6,0,1.1,0.5,1.2,1.2v9.2
			C29.7,11.1,29.2,11.6,28.5,11.6z"/>
		<path class="st0" d="M22.3,33.9c-0.7,0-1.2-0.5-1.2-1.2l0,0c0-7,5.7-12.7,12.7-12.7c0.7,0,1.2,0.5,1.2,1.2s-0.5,1.2-1.2,1.2
			c-5.7,0-10.3,4.6-10.3,10.3C23.5,33.3,22.9,33.9,22.3,33.9C22.3,33.9,22.3,33.9,22.3,33.9z"/>
		<rect class="st1" width="100" height="100"/>
	</g>
</g>
</svg>
