<svg width="100" height="100" preserveAspectRatio="xMidYMid meet"  id="Layer_2" data-name="Layer 2" xmlns="http://www.w3.org/2000/svg" viewBox="0 0 100 86.039"><title>Icon_Briefcase_100x100</title><path d="M148.612,143.019H51.388A1.388,1.388,0,0,1,50,141.631V69.453a1.388,1.388,0,0,1,1.388-1.388H68.942v2.776H52.776v69.4h94.448v-69.4H131.057V68.065h17.554A1.388,1.388,0,0,1,150,69.453v72.178A1.388,1.388,0,0,1,148.612,143.019Z" transform="translate(-50 -56.981)" style="fill:#f4f4f4"/><rect x="29.7" y="11.085" width="40.947" height="2.776" style="fill:#f4f4f4"/><path d="M79.7,133.727H68.943a1.388,1.388,0,0,1-1.388-1.388V66.173a1.388,1.388,0,0,1,1.388-1.388H79.7a1.388,1.388,0,0,1,1.388,1.388v66.166A1.388,1.388,0,0,1,79.7,133.727Zm-9.369-2.776h7.981V67.561H70.331v63.39Z" transform="translate(-50 -56.981)" style="fill:#f4f4f4"/><path d="M131.057,133.727H120.3a1.388,1.388,0,0,1-1.388-1.388V66.173a1.388,1.388,0,0,1,1.388-1.388h10.757a1.388,1.388,0,0,1,1.388,1.388v66.166A1.388,1.388,0,0,1,131.057,133.727Zm-9.369-2.776h7.981V67.561h-7.981v63.39Z" transform="translate(-50 -56.981)" style="fill:#f4f4f4"/><rect x="1.388" y="47.174" width="17.554" height="2.776" style="fill:#f4f4f4"/><rect x="29.7" y="47.174" width="40.947" height="2.776" style="fill:#f4f4f4"/><rect x="81.057" y="47.173" width="17.554" height="2.776" style="fill:#f4f4f4"/><path d="M105.657,66.07H94.371a2.848,2.848,0,0,1-2.845-2.845v-3.4a2.848,2.848,0,0,1,2.845-2.845h11.285a2.848,2.848,0,0,1,2.845,2.845v3.4A2.848,2.848,0,0,1,105.657,66.07ZM94.371,59.757a0.069,0.069,0,0,0-.068.068v3.4a0.069,0.069,0,0,0,.068.068h11.285a0.068,0.068,0,0,0,.068-0.068v-3.4a0.068,0.068,0,0,0-.068-0.068H94.371Z" transform="translate(-50 -56.981)" style="fill:#f4f4f4"/><path d="M77.534,127.513H71.57a5.321,5.321,0,0,1-5.315-5.315v-1.573a5.324,5.324,0,0,1,1.753-3.938l1.863,2.058a2.544,2.544,0,0,0-.84,1.88V122.2a2.542,2.542,0,0,0,2.539,2.539h5.964a2.542,2.542,0,0,0,2.539-2.539v-1.573a2.54,2.54,0,0,0-1.142-2.115l1.538-2.311a5.309,5.309,0,0,1,2.38,4.426V122.2A5.321,5.321,0,0,1,77.534,127.513Z" transform="translate(-50 -56.981)" style="fill:#f4f4f4"/><path d="M128.661,127.513H122.7a5.321,5.321,0,0,1-5.315-5.315v-1.573a5.323,5.323,0,0,1,1.752-3.938L121,118.745a2.542,2.542,0,0,0-.84,1.88V122.2a2.541,2.541,0,0,0,2.539,2.539h5.964A2.541,2.541,0,0,0,131.2,122.2v-1.573a2.54,2.54,0,0,0-1.142-2.115l1.537-2.311a5.307,5.307,0,0,1,2.381,4.426V122.2A5.321,5.321,0,0,1,128.661,127.513Z" transform="translate(-50 -56.981)" style="fill:#f4f4f4"/><rect x="72.816" y="57.237" width="5.552" height="5.552" rx="1.388" ry="1.388" style="fill:#f4f4f4"/><rect x="72.816" y="47.174" width="5.552" height="5.552" rx="1.388" ry="1.388" style="fill:#f4f4f4"/><rect x="21.776" y="47.486" width="5.552" height="5.552" rx="1.388" ry="1.388" style="fill:#f4f4f4"/><rect x="21.776" y="57.549" width="5.552" height="5.552" rx="1.388" ry="1.388" style="fill:#f4f4f4"/><rect x="21.776" y="64.489" width="4.887" height="8.762" rx="1.388" ry="1.388" style="fill:#f4f4f4"/><rect x="73.408" y="64.489" width="4.887" height="8.762" rx="1.388" ry="1.388" style="fill:#f4f4f4"/><path d="M87.97,69.453H85.194V61.525a1.388,1.388,0,0,1,1.388-1.388h6.448v2.776H87.97v6.54Z" transform="translate(-50 -56.981)" style="fill:#f4f4f4"/><path d="M114.834,69.453h-2.776v-6.54H107V60.137h6.448a1.388,1.388,0,0,1,1.388,1.388v7.928Z" transform="translate(-50 -56.981)" style="fill:#f4f4f4"/></svg>