<svg width="100" height="100" preserveAspectRatio="xMidYMid meet"  xmlns="http://www.w3.org/2000/svg" viewBox="0 0 89.558 100"><title>Icon-Family-100x100</title><g id="Layer_2" data-name="Layer 2"><g id="Layer_2-2" data-name="Layer 2"><path fill="#FFFFFF"  d="M43.923,69.425A14.225,14.225,0,1,1,58.147,55.2,14.24,14.24,0,0,1,43.923,69.425Zm0-26.115A11.891,11.891,0,1,0,55.813,55.2,11.9,11.9,0,0,0,43.923,43.309Z" style="fill:#FFFFFF"/><path fill="#FFFFFF"  d="M44.081,53.012a31.742,31.742,0,0,1-12.408-2.441,1.167,1.167,0,0,1,.983-2.117h0c.108.05,10.913,4.921,22.569-.016a1.167,1.167,0,0,1,.91,2.149A30.752,30.752,0,0,1,44.081,53.012Z" style="fill:#FFFFFF"/><path fill="#FFFFFF"  d="M70.686,37.745A18.873,18.873,0,1,1,89.558,18.873,18.894,18.894,0,0,1,70.686,37.745Zm0-35.412A16.539,16.539,0,1,0,87.224,18.873,16.558,16.558,0,0,0,70.686,2.334Z" style="fill:#FFFFFF"/><path fill="#FFFFFF"  d="M70.895,15.493A42.566,42.566,0,0,1,54.251,12.22a1.167,1.167,0,0,1,.983-2.117c.148.068,14.955,6.754,30.939-.016a1.167,1.167,0,0,1,.91,2.149A41.31,41.31,0,0,1,70.895,15.493Z" style="fill:#FFFFFF"/><path fill="#FFFFFF"  d="M18.873,42.173A18.873,18.873,0,1,1,37.745,23.3,18.894,18.894,0,0,1,18.873,42.173Zm0-35.412A16.539,16.539,0,1,0,35.412,23.3,16.558,16.558,0,0,0,18.873,6.761Z" style="fill:#FFFFFF"/><path fill="#FFFFFF"  d="M19.082,19.92A42.566,42.566,0,0,1,2.438,16.647a1.167,1.167,0,0,1,.983-2.117c.148.068,14.953,6.753,30.939-.016a1.167,1.167,0,0,1,.91,2.149A41.306,41.306,0,0,1,19.082,19.92Z" style="fill:#FFFFFF"/><path fill="#FFFFFF"  d="M43.856,100,29.388,89.36V77.213l7.552-8.365L43.823,73.5l6.717-5.021,9.044,7.674V90.6ZM31.722,88.18,43.99,97.2,57.251,89.28V77.238l-6.8-5.772-6.557,4.9-6.578-4.451-5.591,6.193Z" style="fill:#FFFFFF"/><path fill="#FFFFFF"  d="M19.863,94.09,0,82.723V51.3l3.045-2.665,8.709-7.143,6.519,6.82,6.517-6.924,5.994,6.232A1.167,1.167,0,0,1,29.1,49.237l-4.294-4.464L18.286,51.7l-6.724-7.035L4.554,50.416l-2.22,1.943V81.37L19.854,91.4l4.155-2.413A1.167,1.167,0,0,1,25.182,91Z" style="fill:#FFFFFF"/><path fill="#FFFFFF"  d="M67.941,89.575l-5.319-3.089a1.167,1.167,0,0,1,1.172-2.018l4.155,2.413L85.469,76.854V47.844l-2.249-1.967-6.979-5.724-6.725,7.035-6.522-6.93L58.7,44.722A1.167,1.167,0,1,1,57.019,43.1l5.994-6.232L69.53,43.8l6.519-6.82,8.68,7.119L87.8,46.785V78.208Z" style="fill:#FFFFFF"/></g></g></svg>